<svg width="120" height="120" viewBox="0 0 120 120" fill="none" xmlns="http://www.w3.org/2000/svg">
<g clip-path="url(#clip0_2467_1076)">
<path d="M90 1H30C13.9837 1 1 13.9837 1 30V90C1 106.016 13.9837 119 30 119H90C106.016 119 119 106.016 119 90V30C119 13.9837 106.016 1 90 1Z" fill="black" stroke="white" stroke-width="2"/>
<path d="M30.5371 29.375C27.479 29.375 25 31.854 25 34.9121V51.5234C25 53.7886 26.8363 55.625 29.1016 55.625H36.0742V34.9121C36.0742 31.854 33.5952 29.375 30.5371 29.375ZM90.8984 71.0742H86.1133C83.852 71.0742 82.0117 72.9145 82.0117 75.1758V79.8242H68.6133V75.1758C68.6133 72.9145 66.773 71.0742 64.5117 71.0742H59.8633C57.602 71.0742 55.7617 72.9145 55.7617 75.1758V90.8984C55.7617 93.1598 57.602 95 59.8633 95H64.5117C66.773 95 68.6133 93.1598 68.6133 90.8984V86.1133H82.0117V90.8984C82.0117 93.1598 83.852 95 86.1133 95H90.8984C93.1598 95 95 93.1598 95 90.8984V75.1758C95 72.9145 93.1598 71.0742 90.8984 71.0742Z" fill="white"/>
<path d="M64.5117 66.9727C69.0344 66.9727 72.7148 70.6531 72.7148 75.1758V75.7227H77.9102V75.1758C77.9102 71.3859 80.4955 68.1867 83.9941 67.2502V30.4688C83.9941 27.4486 81.5455 25 78.5254 25H34.8438C36.3723 25 37.7572 25.6193 38.7594 26.6215C39.7615 27.6236 40.3809 29.0086 40.3809 30.5371V77.7734C40.3809 80.0389 42.217 81.875 44.4824 81.875H51.6602V75.1758C51.6602 70.6531 55.3406 66.9727 59.8633 66.9727H64.5117ZM64.375 37.168H75.3125C76.4451 37.168 77.3633 38.0862 77.3633 39.2188C77.3633 40.3513 76.4451 41.2695 75.3125 41.2695H64.375C63.2424 41.2695 62.3242 40.3513 62.3242 39.2188C62.3242 38.0862 63.2424 37.168 64.375 37.168ZM64.375 53.5742H75.3125C76.4451 53.5742 77.3633 54.4924 77.3633 55.625C77.3633 56.7576 76.4451 57.6758 75.3125 57.6758H64.375C63.2424 57.6758 62.3242 56.7576 62.3242 55.625C62.3242 54.4924 63.2424 53.5742 64.375 53.5742ZM47.6125 36.675C48.4132 35.8742 49.7118 35.8742 50.5127 36.675L52.3438 38.506L56.3625 34.4873C57.1632 33.6866 58.4618 33.6866 59.2627 34.4873C60.0636 35.2881 60.0636 36.5866 59.2627 37.3875L53.7939 42.8563C53.3935 43.2567 52.8686 43.457 52.3438 43.457C51.8189 43.457 51.294 43.2567 50.8937 42.8563L47.6125 39.575C46.8114 38.7743 46.8114 37.4757 47.6125 36.675ZM53.7938 59.2625C53.3935 59.663 52.8686 59.8633 52.3438 59.8633C51.8189 59.8633 51.294 59.663 50.8937 59.2625L47.6125 55.9813C46.8116 55.1805 46.8116 53.882 47.6125 53.0811C48.4132 52.2803 49.7118 52.2803 50.5127 53.0811L52.3438 54.9123L56.3625 50.8936C57.1632 50.0928 58.4618 50.0928 59.2627 50.8936C60.0636 51.6943 60.0636 52.9929 59.2627 53.7938L53.7938 59.2625Z" fill="white"/>
</g>
<defs>
<clipPath id="clip0_2467_1076">
<rect width="120" height="120" fill="white"/>
</clipPath>
</defs>
</svg>
