<svg width="44" height="45" viewBox="0 0 44 45" fill="none" xmlns="http://www.w3.org/2000/svg">
<g clip-path="url(#clip0_38_4)">
<path d="M3.16667 20.4479C3.03791 20.3194 2.93576 20.1668 2.86607 19.9988C2.79637 19.8308 2.76049 19.6507 2.76049 19.4688C2.76049 19.2869 2.79637 19.1067 2.86607 18.9387C2.93576 18.7707 3.03791 18.6181 3.16667 18.4896L13.6528 8.00347C14.8889 6.76736 16.7917 6.43403 18.375 7.18403L26.6528 11.0729C27.1667 11.3229 27.8056 11.2118 28.2222 10.7951L38.6111 0.40625C39.1528 -0.135417 40.0417 -0.135417 40.5833 0.40625C41.125 0.947917 41.125 1.82292 40.5833 2.36458L30.1806 12.7674C28.9444 14.0035 27.0417 14.3368 25.4583 13.5868L17.1944 9.69792C16.6667 9.44792 16.0278 9.55903 15.6111 9.96181L5.13889 20.4479C4.86111 20.7257 4.51389 20.8507 4.15278 20.8507C3.79167 20.8507 3.44444 20.7257 3.16667 20.4479ZM20.1389 24.4063V41.6285C20.1389 42.3652 19.8462 43.0717 19.3253 43.5927C18.8044 44.1136 18.0978 44.4063 17.3611 44.4063H14.5833C13.8466 44.4063 13.1401 44.1136 12.6191 43.5927C12.0982 43.0717 11.8056 42.3652 11.8056 41.6285V24.4063C11.8056 22.8785 13.0556 21.6285 14.5833 21.6285H17.3611C18.8889 21.6285 20.1389 22.8785 20.1389 24.4063ZM43.75 14.6563V41.6285C43.75 42.3652 43.4573 43.0717 42.9364 43.5927C42.4155 44.1136 41.7089 44.4063 40.9722 44.4063H38.1944C37.4577 44.4063 36.7512 44.1136 36.2303 43.5927C35.7093 43.0717 35.4167 42.3652 35.4167 41.6285V14.6563C35.4167 13.1285 36.6667 11.8785 38.1944 11.8785H40.9722C42.5 11.8785 43.75 13.1285 43.75 14.6563ZM8.33333 36.8229V41.6285C8.33333 41.9933 8.26148 42.3545 8.12189 42.6915C7.98229 43.0285 7.77768 43.3347 7.51974 43.5927C7.2618 43.8506 6.95558 44.0552 6.61857 44.1948C6.28155 44.3344 5.92034 44.4063 5.55556 44.4063H2.77778C2.04107 44.4063 1.33453 44.1136 0.813592 43.5927C0.292658 43.0717 0 42.3652 0 41.6285V36.8229C0 35.2951 1.25 34.0451 2.77778 34.0451H5.55556C7.08333 34.0451 8.33333 35.2951 8.33333 36.8229ZM31.9444 29.2396V41.6285C31.9444 42.3652 31.6518 43.0717 31.1309 43.5927C30.6099 44.1136 29.9034 44.4063 29.1667 44.4063H26.3889C25.6522 44.4063 24.9456 44.1136 24.4247 43.5927C23.9038 43.0717 23.6111 42.3652 23.6111 41.6285V29.2396C23.6111 27.7118 24.8611 26.4618 26.3889 26.4618H29.1667C30.6944 26.4618 31.9444 27.7118 31.9444 29.2396Z" fill="black"/>
</g>
<defs>
<clipPath id="clip0_38_4">
<rect width="44" height="45" fill="white"/>
</clipPath>
</defs>
</svg>
