<svg width="48" height="50" viewBox="0 0 48 50" fill="none" xmlns="http://www.w3.org/2000/svg">
<path d="M13.0939 2.38095C13.0939 1.06599 12.0279 0 10.713 0C9.39802 0 8.33203 1.06599 8.33203 2.38095V4.7619C8.33203 6.07687 9.39802 7.14286 10.713 7.14286C12.0279 7.14286 13.0939 6.07687 13.0939 4.7619V2.38095Z" fill="white"/>
<path d="M39.2853 2.38095C39.2853 1.06599 38.2194 0 36.9044 0C35.5894 0 34.5234 1.06599 34.5234 2.38095V4.7619C34.5234 6.07687 35.5894 7.14286 36.9044 7.14286C38.2194 7.14286 39.2853 6.07687 39.2853 4.7619V2.38095Z" fill="white"/>
<path d="M0 17.856V45.237C0 46.4999 0.501699 47.7111 1.39473 48.6042C2.28776 49.4972 3.49897 49.9989 4.7619 49.9989H42.8571C44.1201 49.9989 45.3313 49.4972 46.2243 48.6042C47.1173 47.7111 47.619 46.4999 47.619 45.237V17.856H0ZM14.2857 41.6656C14.2857 42.297 14.0349 42.9026 13.5883 43.3491C13.1418 43.7957 12.5362 44.0465 11.9048 44.0465H9.52381C8.89234 44.0465 8.28674 43.7957 7.84022 43.3491C7.39371 42.9026 7.14286 42.297 7.14286 41.6656V39.2846C7.14286 38.6531 7.39371 38.0475 7.84022 37.601C8.28674 37.1545 8.89234 36.9036 9.52381 36.9036H11.9048C12.5362 36.9036 13.1418 37.1545 13.5883 37.601C14.0349 38.0475 14.2857 38.6531 14.2857 39.2846V41.6656ZM14.2857 28.5703C14.2857 29.2018 14.0349 29.8074 13.5883 30.2539C13.1418 30.7004 12.5362 30.9513 11.9048 30.9513H9.52381C8.89234 30.9513 8.28674 30.7004 7.84022 30.2539C7.39371 29.8074 7.14286 29.2018 7.14286 28.5703V26.1894C7.14286 25.5579 7.39371 24.9523 7.84022 24.5058C8.28674 24.0593 8.89234 23.8084 9.52381 23.8084H11.9048C12.5362 23.8084 13.1418 24.0593 13.5883 24.5058C14.0349 24.9523 14.2857 25.5579 14.2857 26.1894V28.5703ZM27.381 41.6656C27.381 42.297 27.1301 42.9026 26.6836 43.3491C26.2371 43.7957 25.6315 44.0465 25 44.0465H22.619C21.9876 44.0465 21.382 43.7957 20.9355 43.3491C20.4889 42.9026 20.2381 42.297 20.2381 41.6656V39.2846C20.2381 38.6531 20.4889 38.0475 20.9355 37.601C21.382 37.1545 21.9876 36.9036 22.619 36.9036H25C25.6315 36.9036 26.2371 37.1545 26.6836 37.601C27.1301 38.0475 27.381 38.6531 27.381 39.2846V41.6656ZM27.381 28.5703C27.381 29.2018 27.1301 29.8074 26.6836 30.2539C26.2371 30.7004 25.6315 30.9513 25 30.9513H22.619C21.9876 30.9513 21.382 30.7004 20.9355 30.2539C20.4889 29.8074 20.2381 29.2018 20.2381 28.5703V26.1894C20.2381 25.5579 20.4889 24.9523 20.9355 24.5058C21.382 24.0593 21.9876 23.8084 22.619 23.8084H25C25.6315 23.8084 26.2371 24.0593 26.6836 24.5058C27.1301 24.9523 27.381 25.5579 27.381 26.1894V28.5703ZM40.4762 41.6656C40.4762 42.297 40.2253 42.9026 39.7788 43.3491C39.3323 43.7957 38.7267 44.0465 38.0952 44.0465H35.7143C35.0828 44.0465 34.4772 43.7957 34.0307 43.3491C33.5842 42.9026 33.3333 42.297 33.3333 41.6656V39.2846C33.3333 38.6531 33.5842 38.0475 34.0307 37.601C34.4772 37.1545 35.0828 36.9036 35.7143 36.9036H38.0952C38.7267 36.9036 39.3323 37.1545 39.7788 37.601C40.2253 38.0475 40.4762 38.6531 40.4762 39.2846V41.6656ZM40.4762 28.5703C40.4762 29.2018 40.2253 29.8074 39.7788 30.2539C39.3323 30.7004 38.7267 30.9513 38.0952 30.9513H35.7143C35.0828 30.9513 34.4772 30.7004 34.0307 30.2539C33.5842 29.8074 33.3333 29.2018 33.3333 28.5703V26.1894C33.3333 25.5579 33.5842 24.9523 34.0307 24.5058C34.4772 24.0593 35.0828 23.8084 35.7143 23.8084H38.0952C38.7267 23.8084 39.3323 24.0593 39.7788 24.5058C40.2253 24.9523 40.4762 25.5579 40.4762 26.1894V28.5703ZM47.619 15.4751V8.33222C47.619 7.06928 47.1173 5.85807 46.2243 4.96504C45.3313 4.07201 44.1201 3.57031 42.8571 3.57031H41.6667V4.76079C41.6667 7.38698 39.531 9.52269 36.9048 9.52269C34.2786 9.52269 32.1429 7.38698 32.1429 4.76079V3.57031H15.4762V4.76079C15.4762 7.38698 13.3405 9.52269 10.7143 9.52269C8.0881 9.52269 5.95238 7.38698 5.95238 4.76079V3.57031H4.7619C3.49897 3.57031 2.28776 4.07201 1.39473 4.96504C0.501699 5.85807 0 7.06928 0 8.33222V15.4751H47.619Z" fill="white"/>
</svg>
