<svg width="45" height="45" viewBox="0 0 45 45" fill="none" xmlns="http://www.w3.org/2000/svg">
<g clip-path="url(#clip0_38_2)">
<path d="M42.75 6.75H2.25C1.65327 6.75 1.08097 6.98706 0.65901 7.40901C0.237053 7.83096 0 8.40327 0 9C0 9.59673 0.237053 10.169 0.65901 10.591C1.08097 11.0129 1.65327 11.25 2.25 11.25H6.75V38.25C6.75 40.0403 7.46116 41.7571 8.72703 43.023C9.99289 44.2888 11.7098 45 13.5 45H31.5C33.2903 45 35.0071 44.2888 36.273 43.023C37.5388 41.7571 38.25 40.0403 38.25 38.25V11.25H42.75C43.3467 11.25 43.9191 11.0129 44.341 10.591C44.763 10.169 45 9.59673 45 9C45 8.40327 44.763 7.83096 44.341 7.40901C43.9191 6.98706 43.3467 6.75 42.75 6.75ZM20.25 31.5C20.25 32.0967 20.013 32.6691 19.5911 33.091C19.1691 33.513 18.5967 33.75 18 33.75C17.4033 33.75 16.8309 33.513 16.4089 33.091C15.987 32.6691 15.75 32.0967 15.75 31.5V20.25C15.75 19.6533 15.987 19.0809 16.4089 18.6589C16.8309 18.237 17.4033 18 18 18C18.5967 18 19.1691 18.237 19.5911 18.6589C20.013 19.0809 20.25 19.6533 20.25 20.25V31.5ZM29.25 31.5C29.25 32.0967 29.013 32.6691 28.591 33.091C28.1691 33.513 27.5967 33.75 27 33.75C26.4033 33.75 25.8309 33.513 25.409 33.091C24.987 32.6691 24.75 32.0967 24.75 31.5V20.25C24.75 19.6533 24.987 19.0809 25.409 18.6589C25.8309 18.237 26.4033 18 27 18C27.5967 18 28.1691 18.237 28.591 18.6589C29.013 19.0809 29.25 19.6533 29.25 20.25V31.5ZM18 4.5H27C27.5967 4.5 28.1691 4.26294 28.591 3.84099C29.013 3.41904 29.25 2.84673 29.25 2.25C29.25 1.65327 29.013 1.08097 28.591 0.65901C28.1691 0.237053 27.5967 0 27 0H18C17.4033 0 16.8309 0.237053 16.4089 0.65901C15.987 1.08097 15.75 1.65327 15.75 2.25C15.75 2.84673 15.987 3.41904 16.4089 3.84099C16.8309 4.26294 17.4033 4.5 18 4.5Z" fill="black"/>
</g>
<defs>
<clipPath id="clip0_38_2">
<rect width="45" height="45" fill="white"/>
</clipPath>
</defs>
</svg>
