<svg width="30" height="30" viewBox="0 0 30 30" fill="none" xmlns="http://www.w3.org/2000/svg">
<path d="M28.5 4.5H1.5C1.10218 4.5 0.720644 4.65804 0.43934 4.93934C0.158035 5.22064 0 5.60218 0 6C0 6.39782 0.158035 6.77936 0.43934 7.06066C0.720644 7.34196 1.10218 7.5 1.5 7.5H4.5V25.5C4.5 26.6935 4.97411 27.8381 5.81802 28.682C6.66193 29.5259 7.80653 30 9 30H21C22.1935 30 23.3381 29.5259 24.182 28.682C25.0259 27.8381 25.5 26.6935 25.5 25.5V7.5H28.5C28.8978 7.5 29.2794 7.34196 29.5607 7.06066C29.842 6.77936 30 6.39782 30 6C30 5.60218 29.842 5.22064 29.5607 4.93934C29.2794 4.65804 28.8978 4.5 28.5 4.5ZM13.5 21C13.5 21.3978 13.342 21.7794 13.0607 22.0607C12.7794 22.342 12.3978 22.5 12 22.5C11.6022 22.5 11.2206 22.342 10.9393 22.0607C10.658 21.7794 10.5 21.3978 10.5 21V13.5C10.5 13.1022 10.658 12.7206 10.9393 12.4393C11.2206 12.158 11.6022 12 12 12C12.3978 12 12.7794 12.158 13.0607 12.4393C13.342 12.7206 13.5 13.1022 13.5 13.5V21ZM19.5 21C19.5 21.3978 19.342 21.7794 19.0607 22.0607C18.7794 22.342 18.3978 22.5 18 22.5C17.6022 22.5 17.2206 22.342 16.9393 22.0607C16.658 21.7794 16.5 21.3978 16.5 21V13.5C16.5 13.1022 16.658 12.7206 16.9393 12.4393C17.2206 12.158 17.6022 12 18 12C18.3978 12 18.7794 12.158 19.0607 12.4393C19.342 12.7206 19.5 13.1022 19.5 13.5V21ZM12 3H18C18.3978 3 18.7794 2.84196 19.0607 2.56066C19.342 2.27936 19.5 1.89782 19.5 1.5C19.5 1.10218 19.342 0.720644 19.0607 0.43934C18.7794 0.158035 18.3978 0 18 0H12C11.6022 0 11.2206 0.158035 10.9393 0.43934C10.658 0.720644 10.5 1.10218 10.5 1.5C10.5 1.89782 10.658 2.27936 10.9393 2.56066C11.2206 2.84196 11.6022 3 12 3Z" fill="white"/>
</svg>
