<svg width="47" height="50" viewBox="0 0 47 50" fill="none" xmlns="http://www.w3.org/2000/svg">
<g clip-path="url(#clip0_38_22)">
<path d="M42.3077 3.84615H36.5385V1.92308C36.5385 1.41305 36.3359 0.923903 35.9752 0.563256C35.6146 0.202609 35.1254 0 34.6154 0C34.1054 0 33.6162 0.202609 33.2556 0.563256C32.8949 0.923903 32.6923 1.41305 32.6923 1.92308V3.84615H13.4615V1.92308C13.4615 1.41305 13.2589 0.923903 12.8983 0.563256C12.5376 0.202609 12.0485 0 11.5385 0C11.0284 0 10.5393 0.202609 10.1786 0.563256C9.81799 0.923903 9.61538 1.41305 9.61538 1.92308V3.84615H3.84615C2.82609 3.84615 1.84781 4.25137 1.12651 4.97267C0.405218 5.69396 0 6.67224 0 7.69231V46.1538C0 47.1739 0.405218 48.1522 1.12651 48.8735C1.84781 49.5948 2.82609 50 3.84615 50H42.3077C43.3278 50 44.306 49.5948 45.0273 48.8735C45.7486 48.1522 46.1538 47.1739 46.1538 46.1538V7.69231C46.1538 6.67224 45.7486 5.69396 45.0273 4.97267C44.306 4.25137 43.3278 3.84615 42.3077 3.84615ZM33.0519 28.3173L21.8269 38.8942C21.6523 39.0655 21.4454 39.2004 21.2183 39.2911C20.9912 39.3819 20.7484 39.4268 20.5038 39.4231C20.0115 39.4248 19.5378 39.2352 19.1827 38.8942L13.1 33.125C12.9074 32.9537 12.7513 32.7454 12.6408 32.5125C12.5303 32.2797 12.4678 32.027 12.4569 31.7695C12.446 31.512 12.487 31.2549 12.5775 31.0135C12.6679 30.7722 12.8059 30.5515 12.9833 30.3645C13.1608 30.1775 13.3739 30.0282 13.6102 29.9252C13.8465 29.8223 14.1011 29.7679 14.3588 29.7653C14.6165 29.7627 14.8722 29.8119 15.1105 29.91C15.3488 30.0082 15.565 30.1532 15.7462 30.3365L20.5038 34.8558L30.4077 25.5288C30.5893 25.3524 30.8044 25.214 31.0403 25.1219C31.2762 25.0297 31.5282 24.9857 31.7813 24.9923C32.0345 24.9989 32.2838 25.0561 32.5145 25.1605C32.7453 25.2648 32.9528 25.4143 33.125 25.6C33.4754 25.9701 33.6645 26.4643 33.6508 26.9738C33.6371 27.4833 33.4217 27.9665 33.0519 28.3173ZM42.3077 15.3846H3.84615V7.69231H9.61538V9.61538C9.61538 10.1254 9.81799 10.6146 10.1786 10.9752C10.5393 11.3359 11.0284 11.5385 11.5385 11.5385C12.0485 11.5385 12.5376 11.3359 12.8983 10.9752C13.2589 10.6146 13.4615 10.1254 13.4615 9.61538V7.69231H32.6923V9.61538C32.6923 10.1254 32.8949 10.6146 33.2556 10.9752C33.6162 11.3359 34.1054 11.5385 34.6154 11.5385C35.1254 11.5385 35.6146 11.3359 35.9752 10.9752C36.3359 10.6146 36.5385 10.1254 36.5385 9.61538V7.69231H42.3077V15.3846Z" fill="black"/>
</g>
<defs>
<clipPath id="clip0_38_22">
<rect width="47" height="50" fill="white"/>
</clipPath>
</defs>
</svg>
