<svg width="50" height="50" viewBox="0 0 50 50" fill="none" xmlns="http://www.w3.org/2000/svg">
<path d="M40.6369 45.0523H8.87079C8.34467 45.054 7.82955 44.9017 7.38884 44.6144C6.94812 44.327 6.60104 43.917 6.39033 43.435H38.6081C39.6881 43.4337 40.7236 43.0042 41.4873 42.2405C42.2509 41.4768 42.6805 40.4414 42.6817 39.3613V8.30664C43.3535 8.37119 43.9373 8.94063 43.9373 9.5627V41.7521C43.9363 42.6271 43.5882 43.4659 42.9695 44.0846C42.3508 44.7033 41.5119 45.0514 40.6369 45.0523ZM32.9077 7.36182C33.1086 7.36156 33.3013 7.28161 33.4433 7.13951C33.5854 6.9974 33.6653 6.80475 33.6655 6.60381V2.721C33.6655 2.51999 33.5857 2.32721 33.4435 2.18508C33.3014 2.04294 33.1086 1.96309 32.9076 1.96309C32.7066 1.96309 32.5138 2.04294 32.3717 2.18508C32.2296 2.32721 32.1497 2.51999 32.1497 2.721V6.60381C32.1499 6.80478 32.2298 6.99747 32.3719 7.13958C32.5141 7.28169 32.7067 7.36161 32.9077 7.36182ZM45.3045 11.2898V41.7521C45.3032 42.9897 44.811 44.1763 43.9359 45.0514C43.0607 45.9265 41.8742 46.4188 40.6365 46.42H8.91337C9.12505 46.901 9.47208 47.31 9.91217 47.5972C10.3523 47.8844 10.8664 48.0373 11.3919 48.0374H43.1581C44.0332 48.0364 44.8721 47.6883 45.4908 47.0695C46.1096 46.4507 46.4575 45.6117 46.4584 44.7366V12.5469C46.4579 12.2311 46.3392 11.9269 46.1256 11.6942C45.9121 11.4615 45.6191 11.3173 45.3045 11.2898ZM11.9484 7.36182C12.1494 7.36159 12.342 7.28165 12.4841 7.13954C12.6262 6.99744 12.7061 6.80477 12.7063 6.60381V2.721C12.7063 2.51999 12.6265 2.32721 12.4844 2.18508C12.3422 2.04294 12.1494 1.96309 11.9484 1.96309C11.7474 1.96309 11.5546 2.04294 11.4125 2.18508C11.2704 2.32721 11.1905 2.51999 11.1905 2.721V6.60381C11.1907 6.80477 11.2706 6.99744 11.4127 7.13954C11.5548 7.28165 11.7475 7.36159 11.9484 7.36182ZM22.428 7.36182C22.629 7.36156 22.8216 7.28161 22.9637 7.13951C23.1058 6.99741 23.1857 6.80476 23.1859 6.60381V2.721C23.1859 2.51999 23.1061 2.32721 22.9639 2.18508C22.8218 2.04294 22.629 1.96309 22.428 1.96309C22.227 1.96309 22.0342 2.04294 21.8921 2.18508C21.75 2.32721 21.6701 2.51999 21.6701 2.721V6.60381C21.6703 6.80476 21.7503 6.99741 21.8923 7.13951C22.0344 7.28161 22.2271 7.36156 22.428 7.36182ZM38.6081 42.0678H6.24794C5.53041 42.0669 4.84251 41.7815 4.33515 41.2742C3.82778 40.7668 3.5424 40.0789 3.5416 39.3613V11.2844H41.3145V39.3613C41.3137 40.0789 41.0283 40.7668 40.521 41.2742C40.0136 41.7816 39.3256 42.067 38.6081 42.0678ZM34.9625 22.4248H33.1118V30.5049H34.9625V22.4248ZM31.7446 20.3975H28.5132V32.5322H31.7446V20.3975ZM17.7102 27.9481H27.146V24.9815H17.7102V27.9481ZM16.343 20.3975H13.1114V32.5322H16.343V20.3975ZM9.89365 30.5049H11.7442V22.4248H9.89365V30.5049ZM41.3145 6.57774C41.3141 6.24301 41.181 5.92211 40.9443 5.68544C40.7076 5.44876 40.3867 5.31563 40.0519 5.31524H35.0324V6.6043C35.0324 7.16791 34.8085 7.70844 34.41 8.10697C34.0115 8.5055 33.4709 8.7294 32.9073 8.7294C32.3437 8.7294 31.8032 8.5055 31.4046 8.10697C31.0061 7.70844 30.7822 7.16791 30.7822 6.6043V5.31524H24.5531V6.6043C24.5531 7.16791 24.3292 7.70844 23.9307 8.10697C23.5322 8.5055 22.9916 8.7294 22.428 8.7294C21.8644 8.7294 21.3239 8.5055 20.9253 8.10697C20.5268 7.70844 20.3029 7.16791 20.3029 6.6043V5.31524H14.0735V6.6043C14.0735 7.16791 13.8496 7.70844 13.4511 8.10697C13.0526 8.5055 12.512 8.7294 11.9484 8.7294C11.3848 8.7294 10.8443 8.5055 10.4458 8.10697C10.0472 7.70844 9.82333 7.16791 9.82333 6.6043V5.31524H4.8038C4.46914 5.3157 4.14832 5.44887 3.9117 5.68555C3.67508 5.92222 3.54198 6.24307 3.5416 6.57774V9.91758H41.3145V6.57774Z" fill="white"/>
</svg>
