<svg width="50" height="50" viewBox="0 0 50 50" fill="none" xmlns="http://www.w3.org/2000/svg">
<path fill-rule="evenodd" clip-rule="evenodd" d="M42.7709 9.4375C43.0469 9.1413 43.1972 8.74954 43.19 8.34474C43.1829 7.93995 43.0189 7.55373 42.7326 7.26745C42.4463 6.98118 42.0601 6.81719 41.6553 6.81005C41.2505 6.80291 40.8588 6.95317 40.5626 7.22917L7.22924 40.5625C7.07573 40.7055 6.9526 40.878 6.8672 41.0697C6.7818 41.2614 6.73588 41.4683 6.73218 41.6781C6.72848 41.8879 6.76707 42.0963 6.84565 42.2908C6.92424 42.4854 7.04121 42.6621 7.18958 42.8105C7.33795 42.9589 7.51469 43.0758 7.70925 43.1544C7.90381 43.233 8.1122 43.2716 8.322 43.2679C8.5318 43.2642 8.7387 43.2183 8.93036 43.1329C9.12203 43.0475 9.29453 42.9244 9.43758 42.7708L15.7605 36.4479C18.5063 37.7146 21.6501 38.5417 25.0001 38.5417C30.4542 38.5417 35.3584 36.3521 38.8917 33.6396C40.6626 32.2813 42.1147 30.7729 43.1313 29.3063C44.1313 27.8646 44.7917 26.35 44.7917 25C44.7917 23.65 44.1313 22.1354 43.1334 20.6958C42.1126 19.2271 40.6626 17.7188 38.8917 16.3625C38.3292 15.9292 37.7292 15.5083 37.1001 15.1104L42.7709 9.4375ZM31.5209 20.6917L29.2292 22.9792C29.647 23.8539 29.7833 24.8366 29.6194 25.792C29.4555 26.7474 28.9994 27.6284 28.314 28.3139C27.6285 28.9993 26.7474 29.4554 25.7921 29.6193C24.8367 29.7832 23.854 29.6469 22.9792 29.2292L20.6876 31.5208C22.1899 32.5156 23.9899 32.9604 25.7827 32.78C27.5755 32.5996 29.2508 31.8051 30.5249 30.531C31.7989 29.257 32.5935 27.5817 32.7739 25.7889C32.9542 23.9961 32.5094 22.1961 31.5147 20.6938L31.5209 20.6917Z" fill="white"/>
<path d="M26.3959 17.3125C26.4816 17.3286 26.5699 17.3237 26.6533 17.2983C26.7367 17.2729 26.8128 17.2277 26.875 17.1667L30.9375 13.1042C31.0007 13.0421 31.0464 12.9645 31.0702 12.8791C31.094 12.7938 31.095 12.7037 31.073 12.6179C31.0511 12.5321 31.007 12.4535 30.9452 12.3901C30.8834 12.3266 30.8061 12.2805 30.7209 12.2563C28.8591 11.7315 26.9344 11.463 25 11.4583C19.5459 11.4583 14.6417 13.6479 11.1084 16.3604C9.33754 17.7188 7.88546 19.2271 6.86671 20.6938C5.86671 22.1354 5.20837 23.65 5.20837 25C5.20837 26.35 5.86879 27.8646 6.86671 29.3042C7.85808 30.6956 9.02938 31.9495 10.35 33.0333C10.4489 33.115 10.5747 33.1567 10.7028 33.1501C10.8308 33.1436 10.9517 33.0893 11.0417 32.9979L17.1667 26.8729C17.2278 26.8107 17.2729 26.7346 17.2983 26.6512C17.3237 26.5678 17.3286 26.4795 17.3125 26.3938C17.0868 25.1513 17.1656 23.8726 17.5422 22.6672C17.9188 21.4618 18.582 20.3657 19.4749 19.4728C20.3679 18.5798 21.464 17.9166 22.6693 17.54C23.8747 17.1634 25.1534 17.0847 26.3959 17.3104V17.3125Z" fill="white"/>
</svg>
