<svg width="50" height="50" viewBox="0 0 50 50" fill="none" xmlns="http://www.w3.org/2000/svg">
<path d="M24.2191 11.4275L7.5533 26.4267C7.19999 26.7466 7 27.1933 7 27.6666V37.6661C7.00035 37.988 7.09363 38.303 7.26865 38.5732C7.44366 38.8434 7.69297 39.0573 7.98661 39.1893C8.58991 39.456 9.29321 39.346 9.77985 38.906L25.3323 24.9101L40.8815 38.906C41.3715 39.346 42.0748 39.4593 42.6747 39.1893C43.278 38.9193 43.6647 38.3227 43.6647 37.6661V27.6666C43.6647 27.1933 43.4614 26.7466 43.1147 26.4267L26.4489 11.4275C25.8156 10.8575 24.849 10.8575 24.2191 11.4275Z" fill="black"/>
</svg>
