<svg width="50" height="50" viewBox="0 0 50 50" fill="none" xmlns="http://www.w3.org/2000/svg">
<path d="M24.2191 38.5725L7.5533 23.5733C7.19999 23.2534 7 22.8067 7 22.3334V12.3339C7.00035 12.012 7.09363 11.697 7.26865 11.4268C7.44366 11.1566 7.69297 10.9427 7.98661 10.8107C8.58991 10.544 9.29321 10.654 9.77985 11.094L25.3323 25.0899L40.8815 11.094C41.3715 10.654 42.0748 10.5407 42.6747 10.8107C43.278 11.0807 43.6647 11.6773 43.6647 12.3339V22.3334C43.6647 22.8067 43.4614 23.2534 43.1147 23.5733L26.4489 38.5725C25.8156 39.1425 24.849 39.1425 24.2191 38.5725Z" fill="black"/>
</svg>
