<svg width="50" height="50" viewBox="0 0 50 50" fill="none" xmlns="http://www.w3.org/2000/svg">
<path d="M24.934 2.08338C23.6374 2.10123 22.3987 2.62359 21.4809 3.53963L7.70173 17.2917C6.772 18.2251 6.25 19.4889 6.25 20.8063C6.25 22.1237 6.772 23.3875 7.70173 24.3209C9.63714 26.2532 12.8059 26.2532 14.7434 24.3209L19.7924 19.2792V42.7084C19.7924 45.5761 22.133 47.9167 25.0007 47.9167C27.8684 47.9167 30.209 45.5761 30.209 42.7084V19.2792L35.259 24.3209C37.1944 26.2532 40.3632 26.2532 42.3007 24.3209C43.2304 23.3875 43.7524 22.1237 43.7524 20.8063C43.7524 19.4889 43.2304 18.2251 42.3007 17.2917L28.5184 3.53963C28.0482 3.07052 27.489 2.70006 26.8736 2.44999C26.2583 2.19992 25.5982 2.07528 24.934 2.08338Z" fill="#333333"/>
</svg>
