<svg width="50" height="50" viewBox="0 0 50 50" fill="none" xmlns="http://www.w3.org/2000/svg">
<path d="M26.4456 38.5725L43.1114 23.5733C43.4647 23.2534 43.6647 22.8067 43.6647 22.3334V12.3339C43.6643 12.012 43.5711 11.697 43.396 11.4268C43.221 11.1566 42.9717 10.9427 42.6781 10.8107C42.0748 10.544 41.3715 10.654 40.8848 11.094L25.3323 25.0899L9.78318 11.094C9.29321 10.654 8.58991 10.5407 7.98995 10.8107C7.38665 11.0807 7 11.6773 7 12.3339V22.3334C7 22.8067 7.20332 23.2534 7.54997 23.5733L24.2157 38.5725C24.849 39.1425 25.8157 39.1425 26.4456 38.5725Z" fill="white"/>
</svg>
