<svg width="50" height="50" viewBox="0 0 50 50" fill="none" xmlns="http://www.w3.org/2000/svg">
<path d="M26.4456 11.4275L43.1114 26.4267C43.4647 26.7466 43.6647 27.1933 43.6647 27.6666V37.6661C43.6643 37.988 43.5711 38.303 43.396 38.5732C43.221 38.8434 42.9717 39.0573 42.6781 39.1893C42.0748 39.456 41.3715 39.346 40.8848 38.906L25.3323 24.9101L9.78319 38.906C9.29321 39.346 8.58992 39.4593 7.98995 39.1893C7.38665 38.9193 7.00001 38.3227 7.00001 37.6661V27.6666C7.00001 27.1933 7.20333 26.7466 7.54998 26.4267L24.2157 11.4275C24.849 10.8575 25.8157 10.8575 26.4456 11.4275Z" fill="white"/>
</svg>
