<svg width="50" height="50" viewBox="0 0 50 50" fill="none" xmlns="http://www.w3.org/2000/svg">
<g clip-path="url(#clip0_38_28)">
<path d="M3.95508 3.125C1.7707 3.125 0 4.8957 0 7.08008V18.9453C0 20.5633 1.31162 21.875 2.92969 21.875H7.91016V7.08008C7.91016 4.8957 6.13945 3.125 3.95508 3.125ZM47.0703 32.9102H43.6523C42.0371 32.9102 40.7227 34.2246 40.7227 35.8398V39.1602H31.1523V35.8398C31.1523 34.2246 29.8379 32.9102 28.2227 32.9102H24.9023C23.2871 32.9102 21.9727 34.2246 21.9727 35.8398V47.0703C21.9727 48.6855 23.2871 50 24.9023 50H28.2227C29.8379 50 31.1523 48.6855 31.1523 47.0703V43.6523H40.7227V47.0703C40.7227 48.6855 42.0371 50 43.6523 50H47.0703C48.6855 50 50 48.6855 50 47.0703V35.8398C50 34.2246 48.6855 32.9102 47.0703 32.9102Z" fill="#333333"/>
<path d="M28.2227 29.9805C31.4531 29.9805 34.082 32.6094 34.082 35.8398V36.2305H37.793V35.8398C37.793 33.1328 39.6396 30.8477 42.1387 30.1787V3.90625C42.1387 1.74902 40.3896 0 38.2324 0H7.03125C8.12305 0 9.1123 0.442383 9.82812 1.1582C10.5439 1.87402 10.9863 2.86328 10.9863 3.95508V37.6953C10.9863 39.3135 12.2979 40.625 13.916 40.625H19.043V35.8398C19.043 32.6094 21.6719 29.9805 24.9023 29.9805H28.2227ZM28.125 8.69141H35.9375C36.7465 8.69141 37.4023 9.34727 37.4023 10.1562C37.4023 10.9652 36.7465 11.6211 35.9375 11.6211H28.125C27.316 11.6211 26.6602 10.9652 26.6602 10.1562C26.6602 9.34727 27.316 8.69141 28.125 8.69141ZM28.125 20.4102H35.9375C36.7465 20.4102 37.4023 21.066 37.4023 21.875C37.4023 22.684 36.7465 23.3398 35.9375 23.3398H28.125C27.316 23.3398 26.6602 22.684 26.6602 21.875C26.6602 21.066 27.316 20.4102 28.125 20.4102ZM16.1518 8.33926C16.7237 7.76728 17.6513 7.76728 18.2233 8.33926L19.5312 9.64717L22.4018 6.77666C22.9737 6.20469 23.9013 6.20469 24.4733 6.77666C25.0454 7.34863 25.0454 8.27617 24.4733 8.84824L20.5671 12.7545C20.2811 13.0405 19.9062 13.1836 19.5312 13.1836C19.1563 13.1836 18.7814 13.0405 18.4955 12.7545L16.1518 10.4107C15.5796 9.83877 15.5796 8.91123 16.1518 8.33926ZM20.567 24.4732C20.2811 24.7593 19.9062 24.9023 19.5312 24.9023C19.1563 24.9023 18.7814 24.7593 18.4955 24.4732L16.1518 22.1295C15.5797 21.5575 15.5797 20.63 16.1518 20.0579C16.7237 19.4859 17.6513 19.4859 18.2233 20.0579L19.5312 21.3659L22.4018 18.4954C22.9737 17.9234 23.9013 17.9234 24.4733 18.4954C25.0454 19.0674 25.0454 19.9949 24.4733 20.567L20.567 24.4732Z" fill="#333333"/>
</g>
<defs>
<clipPath id="clip0_38_28">
<rect width="50" height="50" fill="white"/>
</clipPath>
</defs>
</svg>
