<svg width="50" height="50" viewBox="0 0 50 50" fill="none" xmlns="http://www.w3.org/2000/svg">
<path d="M49.2924 29.911C48.7236 29.56 47.9893 29.6245 47.4968 30.0746C43.9103 33.3278 39.2708 35.1203 34.4356 35.1203C23.7038 35.1203 14.9723 26.3889 14.9723 15.657C14.9723 10.8215 16.7648 6.18235 20.018 2.59583C20.2365 2.35491 20.3707 2.04937 20.4003 1.72542C20.4298 1.40146 20.3531 1.0767 20.1816 0.800225C19.8291 0.233037 19.1391 -0.0302439 18.5017 0.149834C7.60723 3.2348 0 13.3057 0 24.6399C0 38.6748 11.4178 50.0922 25.4524 50.0922C36.7866 50.0922 46.8578 42.485 49.9428 31.5909C50.0317 31.2783 50.0163 30.9452 49.8989 30.642C49.7816 30.3389 49.5687 30.0823 49.2924 29.911Z" fill="black"/>
<path d="M24.7927 19.8493L28.3396 21.6213L30.1115 25.1686C30.2358 25.4173 30.427 25.6265 30.6636 25.7727C30.9001 25.9189 31.1728 25.9962 31.4509 25.996C32.0185 25.996 32.5357 25.6759 32.7901 25.1686L34.564 21.6213L38.1094 19.8493C38.358 19.7248 38.567 19.5336 38.7131 19.2971C38.8593 19.0605 38.9366 18.788 38.9366 18.51C38.9366 18.2319 38.8593 17.9594 38.7131 17.7228C38.567 17.4863 38.358 17.2951 38.1094 17.1706L34.564 15.3983L32.7901 11.8515C32.2813 10.8368 30.6177 10.8368 30.1114 11.8515L28.3396 15.3983L24.7927 17.1707C24.5439 17.295 24.3346 17.4861 24.1884 17.7227C24.0422 17.9592 23.9648 18.2319 23.9648 18.51C23.9647 18.7881 24.0421 19.0607 24.1884 19.2973C24.3346 19.5339 24.5439 19.725 24.7927 19.8493ZM40.4237 8.16836H41.921V9.66563C41.921 10.4931 42.5909 11.1629 43.4183 11.1629C44.2456 11.1629 44.9155 10.493 44.9155 9.66563V8.16836H46.4128C47.2402 8.16836 47.9101 7.49893 47.9101 6.67109C47.9101 5.84365 47.2402 5.17422 46.4128 5.17422H44.9155V3.67695C44.9155 2.84912 44.2457 2.17969 43.4183 2.17969C42.5908 2.17969 41.921 2.84912 41.921 3.67695V5.17422H40.4237C39.5964 5.17422 38.9269 5.84365 38.9269 6.67109C38.9269 7.49893 39.5964 8.16836 40.4237 8.16836Z" fill="black"/>
</svg>
