<svg width="100" height="100" viewBox="0 0 100 100" fill="none" xmlns="http://www.w3.org/2000/svg">
<path d="M28.1343 0.00927734H31.6437V3.5187H28.1343V0.00927734Z" fill="white"/>
<path d="M34.961 0.00927734H38.4704V3.5187H34.961V0.00927734Z" fill="white"/>
<path d="M41.7783 0.00927734H45.2877V3.5187H41.7783V0.00927734Z" fill="white"/>
<path d="M45.1823 0.00927734H48.6978V3.5187H45.1823V0.00927734Z" fill="white"/>
<path d="M48.5956 0.00927734H52.1112V3.5187H48.5956V0.00927734Z" fill="white"/>
<path d="M55.413 0.00927734H58.9224V3.5187H55.413V0.00927734Z" fill="white"/>
<path d="M58.8263 0.00927734H62.3357V3.5187H58.8263V0.00927734Z" fill="white"/>
<path d="M65.6343 0.00927734H69.1499V3.5187H65.6343V0.00927734Z" fill="white"/>
<path d="M69.0476 0.00927734H72.5632V3.5187H69.0476V0.00927734Z" fill="white"/>
<path d="M28.1343 3.42261H31.6437V6.93204H28.1343V3.42261Z" fill="white"/>
<path d="M34.961 3.42261H38.4704V6.93204H34.961V3.42261Z" fill="white"/>
<path d="M38.365 3.42261H41.8744V6.93204H38.365V3.42261Z" fill="white"/>
<path d="M45.1823 3.42261H48.6978V6.93204H45.1823V3.42261Z" fill="white"/>
<path d="M48.5956 3.42261H52.1112V6.93204H48.5956V3.42261Z" fill="white"/>
<path d="M51.9996 3.42261H55.509V6.93204H51.9996V3.42261Z" fill="white"/>
<path d="M69.0476 3.42261H72.5632V6.93204H69.0476V3.42261Z" fill="white"/>
<path d="M28.1343 6.83594H31.6437V10.3454H28.1343V6.83594Z" fill="white"/>
<path d="M51.9996 6.83594H55.509V10.3454H51.9996V6.83594Z" fill="white"/>
<path d="M69.0476 6.83594H72.5632V10.3454H69.0476V6.83594Z" fill="white"/>
<path d="M38.365 10.24H41.8744V13.7494H38.365V10.24Z" fill="white"/>
<path d="M41.7783 10.24H45.2877V13.7494H41.7783V10.24Z" fill="white"/>
<path d="M58.8263 10.24H62.3357V13.7494H58.8263V10.24Z" fill="white"/>
<path d="M31.5476 13.6439H35.057V17.1596H31.5476V13.6439Z" fill="white"/>
<path d="M38.365 13.6439H41.8744V17.1596H38.365V13.6439Z" fill="white"/>
<path d="M41.7783 13.6439H45.2877V17.1596H41.7783V13.6439Z" fill="white"/>
<path d="M45.1823 13.6439H48.6978V17.1596H45.1823V13.6439Z" fill="white"/>
<path d="M48.5956 13.6439H52.1112V17.1596H48.5956V13.6439Z" fill="white"/>
<path d="M51.9996 13.6439H55.509V17.1596H51.9996V13.6439Z" fill="white"/>
<path d="M62.2302 13.6439H65.7398V17.1596H62.2302V13.6439Z" fill="white"/>
<path d="M65.6343 13.6439H69.1499V17.1596H65.6343V13.6439Z" fill="white"/>
<path d="M69.0476 13.6439H72.5632V17.1596H69.0476V13.6439Z" fill="white"/>
<path d="M28.1343 17.0573H31.6437V20.5728H28.1343V17.0573Z" fill="white"/>
<path d="M31.5476 17.0573H35.057V20.5728H31.5476V17.0573Z" fill="white"/>
<path d="M34.961 17.0573H38.4704V20.5728H34.961V17.0573Z" fill="white"/>
<path d="M55.413 17.0573H58.9224V20.5728H55.413V17.0573Z" fill="white"/>
<path d="M28.1343 20.4706H31.6437V23.98H28.1343V20.4706Z" fill="white"/>
<path d="M34.961 20.4706H38.4704V23.98H34.961V20.4706Z" fill="white"/>
<path d="M41.7783 20.4706H45.2877V23.98H41.7783V20.4706Z" fill="white"/>
<path d="M48.5956 20.4706H52.1112V23.98H48.5956V20.4706Z" fill="white"/>
<path d="M55.413 20.4706H58.9224V23.98H55.413V20.4706Z" fill="white"/>
<path d="M62.2302 20.4706H65.7398V23.98H62.2302V20.4706Z" fill="white"/>
<path d="M69.0476 20.4706H72.5632V23.98H69.0476V20.4706Z" fill="white"/>
<path d="M28.1343 23.8746H31.6437V27.384H28.1343V23.8746Z" fill="white"/>
<path d="M34.961 23.8746H38.4704V27.384H34.961V23.8746Z" fill="white"/>
<path d="M38.365 23.8746H41.8744V27.384H38.365V23.8746Z" fill="white"/>
<path d="M45.1823 23.8746H48.6978V27.384H45.1823V23.8746Z" fill="white"/>
<path d="M48.5956 23.8746H52.1112V27.384H48.5956V23.8746Z" fill="white"/>
<path d="M51.9996 23.8746H55.509V27.384H51.9996V23.8746Z" fill="white"/>
<path d="M55.413 23.8746H58.9224V27.384H55.413V23.8746Z" fill="white"/>
<path d="M62.2302 23.8746H65.7398V27.384H62.2302V23.8746Z" fill="white"/>
<path d="M65.6343 23.8746H69.1499V27.384H65.6343V23.8746Z" fill="white"/>
<path d="M69.0476 23.8746H72.5632V27.384H69.0476V23.8746Z" fill="white"/>
<path d="M7.68228 27.288H11.1917V30.7974H7.68228V27.288Z" fill="white"/>
<path d="M11.0956 27.288H14.605V30.7974H11.0956V27.288Z" fill="white"/>
<path d="M14.4996 27.288H18.0091V30.7974H14.4996V27.288Z" fill="white"/>
<path d="M21.3169 27.288H24.8326V30.7974H21.3169V27.288Z" fill="white"/>
<path d="M28.1343 27.288H31.6437V30.7974H28.1343V27.288Z" fill="white"/>
<path d="M34.961 27.288H38.4704V30.7974H34.961V27.288Z" fill="white"/>
<path d="M38.365 27.288H41.8744V30.7974H38.365V27.288Z" fill="white"/>
<path d="M41.7783 27.288H45.2877V30.7974H41.7783V27.288Z" fill="white"/>
<path d="M45.1823 27.288H48.6978V30.7974H45.1823V27.288Z" fill="white"/>
<path d="M62.2302 27.288H65.7398V30.7974H62.2302V27.288Z" fill="white"/>
<path d="M65.6343 27.288H69.1499V30.7974H65.6343V27.288Z" fill="white"/>
<path d="M69.0476 27.288H72.5632V30.7974H69.0476V27.288Z" fill="white"/>
<path d="M72.4609 27.288H75.9703V30.7974H72.4609V27.288Z" fill="white"/>
<path d="M75.865 27.288H79.3744V30.7974H75.865V27.288Z" fill="white"/>
<path d="M79.2783 27.288H82.7877V30.7974H79.2783V27.288Z" fill="white"/>
<path d="M89.4996 27.288H93.0152V30.7974H89.4996V27.288Z" fill="white"/>
<path d="M92.913 27.288H96.4286V30.7974H92.913V27.288Z" fill="white"/>
<path d="M96.3263 27.288H99.8357V30.7974H96.3263V27.288Z" fill="white"/>
<path d="M14.4996 30.7013H18.0091V34.2107H14.4996V30.7013Z" fill="white"/>
<path d="M28.1343 30.7013H31.6437V34.2107H28.1343V30.7013Z" fill="white"/>
<path d="M51.9996 30.7013H55.509V34.2107H51.9996V30.7013Z" fill="white"/>
<path d="M62.2302 30.7013H65.7398V34.2107H62.2302V30.7013Z" fill="white"/>
<path d="M65.6343 30.7013H69.1499V34.2107H65.6343V30.7013Z" fill="white"/>
<path d="M69.0476 30.7013H72.5632V34.2107H69.0476V30.7013Z" fill="white"/>
<path d="M72.4609 30.7013H75.9703V34.2107H72.4609V30.7013Z" fill="white"/>
<path d="M75.865 30.7013H79.3744V34.2107H75.865V30.7013Z" fill="white"/>
<path d="M79.2783 30.7013H82.7877V34.2107H79.2783V30.7013Z" fill="white"/>
<path d="M82.6915 30.7013H86.201V34.2107H82.6915V30.7013Z" fill="white"/>
<path d="M96.3263 30.7013H99.8357V34.2107H96.3263V30.7013Z" fill="white"/>
<path d="M4.26898 34.1052H7.7846V37.6147H4.26898V34.1052Z" fill="white"/>
<path d="M7.68228 34.1052H11.1917V37.6147H7.68228V34.1052Z" fill="white"/>
<path d="M17.913 34.1052H21.4224V37.6147H17.913V34.1052Z" fill="white"/>
<path d="M21.3169 34.1052H24.8326V37.6147H21.3169V34.1052Z" fill="white"/>
<path d="M28.1343 34.1052H31.6437V37.6147H28.1343V34.1052Z" fill="white"/>
<path d="M31.5476 34.1052H35.057V37.6147H31.5476V34.1052Z" fill="white"/>
<path d="M72.4609 34.1052H75.9703V37.6147H72.4609V34.1052Z" fill="white"/>
<path d="M75.865 34.1052H79.3744V37.6147H75.865V34.1052Z" fill="white"/>
<path d="M79.2783 34.1052H82.7877V37.6147H79.2783V34.1052Z" fill="white"/>
<path d="M86.0956 34.1052H89.605V37.6147H86.0956V34.1052Z" fill="white"/>
<path d="M89.4996 34.1052H93.0152V37.6147H89.4996V34.1052Z" fill="white"/>
<path d="M0.86496 37.5093H4.38059V41.0249H0.86496V37.5093Z" fill="white"/>
<path d="M14.4996 37.5093H18.0091V41.0249H14.4996V37.5093Z" fill="white"/>
<path d="M24.7302 37.5093H28.246V41.0249H24.7302V37.5093Z" fill="white"/>
<path d="M28.1343 37.5093H31.6437V41.0249H28.1343V37.5093Z" fill="white"/>
<path d="M69.0476 37.5093H72.5632V41.0249H69.0476V37.5093Z" fill="white"/>
<path d="M72.4609 37.5093H75.9703V41.0249H72.4609V37.5093Z" fill="white"/>
<path d="M75.865 37.5093H79.3744V41.0249H75.865V37.5093Z" fill="white"/>
<path d="M82.6915 37.5093H86.201V41.0249H82.6915V37.5093Z" fill="white"/>
<path d="M86.0956 37.5093H89.605V41.0249H86.0956V37.5093Z" fill="white"/>
<path d="M92.913 37.5093H96.4286V41.0249H92.913V37.5093Z" fill="white"/>
<path d="M0.86496 40.9226H4.38059V44.4382H0.86496V40.9226Z" fill="white"/>
<path d="M11.0956 40.9226H14.605V44.4382H11.0956V40.9226Z" fill="white"/>
<path d="M21.3169 40.9226H24.8326V44.4382H21.3169V40.9226Z" fill="white"/>
<path d="M24.7302 40.9226H28.246V44.4382H24.7302V40.9226Z" fill="white"/>
<path d="M28.1343 40.9226H31.6437V44.4382H28.1343V40.9226Z" fill="white"/>
<path d="M72.4609 40.9226H75.9703V44.4382H72.4609V40.9226Z" fill="white"/>
<path d="M79.2783 40.9226H82.7877V44.4382H79.2783V40.9226Z" fill="white"/>
<path d="M89.4996 40.9226H93.0152V44.4382H89.4996V40.9226Z" fill="white"/>
<path d="M92.913 40.9226H96.4286V44.4382H92.913V40.9226Z" fill="white"/>
<path d="M96.3263 40.9226H99.8357V44.4382H96.3263V40.9226Z" fill="white"/>
<path d="M0.86496 44.3359H4.38059V47.8453H0.86496V44.3359Z" fill="white"/>
<path d="M11.0956 44.3359H14.605V47.8453H11.0956V44.3359Z" fill="white"/>
<path d="M17.913 44.3359H21.4224V47.8453H17.913V44.3359Z" fill="white"/>
<path d="M28.1343 44.3359H31.6437V47.8453H28.1343V44.3359Z" fill="white"/>
<path d="M65.6343 44.3359H69.1499V47.8453H65.6343V44.3359Z" fill="white"/>
<path d="M72.4609 44.3359H75.9703V47.8453H72.4609V44.3359Z" fill="white"/>
<path d="M75.865 44.3359H79.3744V47.8453H75.865V44.3359Z" fill="white"/>
<path d="M82.6915 44.3359H86.201V47.8453H82.6915V44.3359Z" fill="white"/>
<path d="M86.0956 44.3359H89.605V47.8453H86.0956V44.3359Z" fill="white"/>
<path d="M92.913 44.3359H96.4286V47.8453H92.913V44.3359Z" fill="white"/>
<path d="M96.3263 44.3359H99.8357V47.8453H96.3263V44.3359Z" fill="white"/>
<path d="M14.4996 47.74H18.0091V51.2494H14.4996V47.74Z" fill="white"/>
<path d="M21.3169 47.74H24.8326V51.2494H21.3169V47.74Z" fill="white"/>
<path d="M24.7302 47.74H28.246V51.2494H24.7302V47.74Z" fill="white"/>
<path d="M28.1343 47.74H31.6437V51.2494H28.1343V47.74Z" fill="white"/>
<path d="M31.5476 47.74H35.057V51.2494H31.5476V47.74Z" fill="white"/>
<path d="M72.4609 47.74H75.9703V51.2494H72.4609V47.74Z" fill="white"/>
<path d="M75.865 47.74H79.3744V51.2494H75.865V47.74Z" fill="white"/>
<path d="M79.2783 47.74H82.7877V51.2494H79.2783V47.74Z" fill="white"/>
<path d="M11.0956 51.1533H14.605V54.6627H11.0956V51.1533Z" fill="white"/>
<path d="M24.7302 51.1533H28.246V54.6627H24.7302V51.1533Z" fill="white"/>
<path d="M69.0476 51.1533H72.5632V54.6627H69.0476V51.1533Z" fill="white"/>
<path d="M82.6915 51.1533H86.201V54.6627H82.6915V51.1533Z" fill="white"/>
<path d="M86.0956 51.1533H89.605V54.6627H86.0956V51.1533Z" fill="white"/>
<path d="M96.3263 51.1533H99.8357V54.6627H96.3263V51.1533Z" fill="white"/>
<path d="M7.68228 54.5665H11.1917V58.0761H7.68228V54.5665Z" fill="white"/>
<path d="M11.0956 54.5665H14.605V58.0761H11.0956V54.5665Z" fill="white"/>
<path d="M21.3169 54.5665H24.8326V58.0761H21.3169V54.5665Z" fill="white"/>
<path d="M24.7302 54.5665H28.246V58.0761H24.7302V54.5665Z" fill="white"/>
<path d="M28.1343 54.5665H31.6437V58.0761H28.1343V54.5665Z" fill="white"/>
<path d="M31.5476 54.5665H35.057V58.0761H31.5476V54.5665Z" fill="white"/>
<path d="M69.0476 54.5665H72.5632V58.0761H69.0476V54.5665Z" fill="white"/>
<path d="M79.2783 54.5665H82.7877V58.0761H79.2783V54.5665Z" fill="white"/>
<path d="M86.0956 54.5665H89.605V58.0761H86.0956V54.5665Z" fill="white"/>
<path d="M89.4996 54.5665H93.0152V58.0761H89.4996V54.5665Z" fill="white"/>
<path d="M96.3263 54.5665H99.8357V58.0761H96.3263V54.5665Z" fill="white"/>
<path d="M0.86496 57.9706H4.38059V61.4862H0.86496V57.9706Z" fill="white"/>
<path d="M4.26898 57.9706H7.7846V61.4862H4.26898V57.9706Z" fill="white"/>
<path d="M17.913 57.9706H21.4224V61.4862H17.913V57.9706Z" fill="white"/>
<path d="M24.7302 57.9706H28.246V61.4862H24.7302V57.9706Z" fill="white"/>
<path d="M28.1343 57.9706H31.6437V61.4862H28.1343V57.9706Z" fill="white"/>
<path d="M65.6343 57.9706H69.1499V61.4862H65.6343V57.9706Z" fill="white"/>
<path d="M69.0476 57.9706H72.5632V61.4862H69.0476V57.9706Z" fill="white"/>
<path d="M72.4609 57.9706H75.9703V61.4862H72.4609V57.9706Z" fill="white"/>
<path d="M75.865 57.9706H79.3744V61.4862H75.865V57.9706Z" fill="white"/>
<path d="M79.2783 57.9706H82.7877V61.4862H79.2783V57.9706Z" fill="white"/>
<path d="M82.6915 57.9706H86.201V61.4862H82.6915V57.9706Z" fill="white"/>
<path d="M89.4996 57.9706H93.0152V61.4862H89.4996V57.9706Z" fill="white"/>
<path d="M92.913 57.9706H96.4286V61.4862H92.913V57.9706Z" fill="white"/>
<path d="M96.3263 57.9706H99.8357V61.4862H96.3263V57.9706Z" fill="white"/>
<path d="M0.86496 61.3746H4.38059V64.8902H0.86496V61.3746Z" fill="white"/>
<path d="M7.68228 61.3746H11.1917V64.8902H7.68228V61.3746Z" fill="white"/>
<path d="M11.0956 61.3746H14.605V64.8902H11.0956V61.3746Z" fill="white"/>
<path d="M14.4996 61.3746H18.0091V64.8902H14.4996V61.3746Z" fill="white"/>
<path d="M17.913 61.3746H21.4224V64.8902H17.913V61.3746Z" fill="white"/>
<path d="M21.3169 61.3746H24.8326V64.8902H21.3169V61.3746Z" fill="white"/>
<path d="M28.1343 61.3746H31.6437V64.8902H28.1343V61.3746Z" fill="white"/>
<path d="M69.0476 61.3746H72.5632V64.8902H69.0476V61.3746Z" fill="white"/>
<path d="M75.865 61.3746H79.3744V64.8902H75.865V61.3746Z" fill="white"/>
<path d="M0.86496 64.788H4.38059V68.3036H0.86496V64.788Z" fill="white"/>
<path d="M11.0956 64.788H14.605V68.3036H11.0956V64.788Z" fill="white"/>
<path d="M34.961 64.788H38.4704V68.3036H34.961V64.788Z" fill="white"/>
<path d="M38.365 64.788H41.8744V68.3036H38.365V64.788Z" fill="white"/>
<path d="M41.7783 64.788H45.2877V68.3036H41.7783V64.788Z" fill="white"/>
<path d="M45.1823 64.788H48.6978V68.3036H45.1823V64.788Z" fill="white"/>
<path d="M48.5956 64.788H52.1112V68.3036H48.5956V64.788Z" fill="white"/>
<path d="M51.9996 64.788H55.509V68.3036H51.9996V64.788Z" fill="white"/>
<path d="M55.413 64.788H58.9224V68.3036H55.413V64.788Z" fill="white"/>
<path d="M58.8263 64.788H62.3357V68.3036H58.8263V64.788Z" fill="white"/>
<path d="M62.2302 64.788H65.7398V68.3036H62.2302V64.788Z" fill="white"/>
<path d="M65.6343 64.788H69.1499V68.3036H65.6343V64.788Z" fill="white"/>
<path d="M69.0476 64.788H72.5632V68.3036H69.0476V64.788Z" fill="white"/>
<path d="M75.865 64.788H79.3744V68.3036H75.865V64.788Z" fill="white"/>
<path d="M82.6915 64.788H86.201V68.3036H82.6915V64.788Z" fill="white"/>
<path d="M86.0956 64.788H89.605V68.3036H86.0956V64.788Z" fill="white"/>
<path d="M92.913 64.788H96.4286V68.3036H92.913V64.788Z" fill="white"/>
<path d="M0.86496 68.2013H4.38059V71.7107H0.86496V68.2013Z" fill="white"/>
<path d="M14.4996 68.2013H18.0091V71.7107H14.4996V68.2013Z" fill="white"/>
<path d="M21.3169 68.2013H24.8326V71.7107H21.3169V68.2013Z" fill="white"/>
<path d="M28.1343 68.2013H31.6437V71.7107H28.1343V68.2013Z" fill="white"/>
<path d="M31.5476 68.2013H35.057V71.7107H31.5476V68.2013Z" fill="white"/>
<path d="M41.7783 68.2013H45.2877V71.7107H41.7783V68.2013Z" fill="white"/>
<path d="M45.1823 68.2013H48.6978V71.7107H45.1823V68.2013Z" fill="white"/>
<path d="M48.5956 68.2013H52.1112V71.7107H48.5956V68.2013Z" fill="white"/>
<path d="M51.9996 68.2013H55.509V71.7107H51.9996V68.2013Z" fill="white"/>
<path d="M55.413 68.2013H58.9224V71.7107H55.413V68.2013Z" fill="white"/>
<path d="M65.6343 68.2013H69.1499V71.7107H65.6343V68.2013Z" fill="white"/>
<path d="M69.0476 68.2013H72.5632V71.7107H69.0476V68.2013Z" fill="white"/>
<path d="M72.4609 68.2013H75.9703V71.7107H72.4609V68.2013Z" fill="white"/>
<path d="M75.865 68.2013H79.3744V71.7107H75.865V68.2013Z" fill="white"/>
<path d="M79.2783 68.2013H82.7877V71.7107H79.2783V68.2013Z" fill="white"/>
<path d="M82.6915 68.2013H86.201V71.7107H82.6915V68.2013Z" fill="white"/>
<path d="M86.0956 68.2013H89.605V71.7107H86.0956V68.2013Z" fill="white"/>
<path d="M89.4996 68.2013H93.0152V71.7107H89.4996V68.2013Z" fill="white"/>
<path d="M92.913 68.2013H96.4286V71.7107H92.913V68.2013Z" fill="white"/>
<path d="M96.3263 68.2013H99.8357V71.7107H96.3263V68.2013Z" fill="white"/>
<path d="M28.1343 71.6052H31.6437V75.1148H28.1343V71.6052Z" fill="white"/>
<path d="M31.5476 71.6052H35.057V75.1148H31.5476V71.6052Z" fill="white"/>
<path d="M34.961 71.6052H38.4704V75.1148H34.961V71.6052Z" fill="white"/>
<path d="M38.365 71.6052H41.8744V75.1148H38.365V71.6052Z" fill="white"/>
<path d="M45.1823 71.6052H48.6978V75.1148H45.1823V71.6052Z" fill="white"/>
<path d="M55.413 71.6052H58.9224V75.1148H55.413V71.6052Z" fill="white"/>
<path d="M65.6343 71.6052H69.1499V75.1148H65.6343V71.6052Z" fill="white"/>
<path d="M69.0476 71.6052H72.5632V75.1148H69.0476V71.6052Z" fill="white"/>
<path d="M82.6915 71.6052H86.201V75.1148H82.6915V71.6052Z" fill="white"/>
<path d="M86.0956 71.6052H89.605V75.1148H86.0956V71.6052Z" fill="white"/>
<path d="M92.913 71.6052H96.4286V75.1148H92.913V71.6052Z" fill="white"/>
<path d="M96.3263 71.6052H99.8357V75.1148H96.3263V71.6052Z" fill="white"/>
<path d="M31.5476 75.0186H35.057V78.528H31.5476V75.0186Z" fill="white"/>
<path d="M38.365 75.0186H41.8744V78.528H38.365V75.0186Z" fill="white"/>
<path d="M58.8263 75.0186H62.3357V78.528H58.8263V75.0186Z" fill="white"/>
<path d="M62.2302 75.0186H65.7398V78.528H62.2302V75.0186Z" fill="white"/>
<path d="M65.6343 75.0186H69.1499V78.528H65.6343V75.0186Z" fill="white"/>
<path d="M69.0476 75.0186H72.5632V78.528H69.0476V75.0186Z" fill="white"/>
<path d="M75.865 75.0186H79.3744V78.528H75.865V75.0186Z" fill="white"/>
<path d="M82.6915 75.0186H86.201V78.528H82.6915V75.0186Z" fill="white"/>
<path d="M92.913 75.0186H96.4286V78.528H92.913V75.0186Z" fill="white"/>
<path d="M31.5476 78.4319H35.057V81.9413H31.5476V78.4319Z" fill="white"/>
<path d="M34.961 78.4319H38.4704V81.9413H34.961V78.4319Z" fill="white"/>
<path d="M51.9996 78.4319H55.509V81.9413H51.9996V78.4319Z" fill="white"/>
<path d="M58.8263 78.4319H62.3357V81.9413H58.8263V78.4319Z" fill="white"/>
<path d="M62.2302 78.4319H65.7398V81.9413H62.2302V78.4319Z" fill="white"/>
<path d="M65.6343 78.4319H69.1499V81.9413H65.6343V78.4319Z" fill="white"/>
<path d="M69.0476 78.4319H72.5632V81.9413H69.0476V78.4319Z" fill="white"/>
<path d="M82.6915 78.4319H86.201V81.9413H82.6915V78.4319Z" fill="white"/>
<path d="M86.0956 78.4319H89.605V81.9413H86.0956V78.4319Z" fill="white"/>
<path d="M28.1343 81.8359H31.6437V85.3515H28.1343V81.8359Z" fill="white"/>
<path d="M34.961 81.8359H38.4704V85.3515H34.961V81.8359Z" fill="white"/>
<path d="M38.365 81.8359H41.8744V85.3515H38.365V81.8359Z" fill="white"/>
<path d="M41.7783 81.8359H45.2877V85.3515H41.7783V81.8359Z" fill="white"/>
<path d="M51.9996 81.8359H55.509V85.3515H51.9996V81.8359Z" fill="white"/>
<path d="M55.413 81.8359H58.9224V85.3515H55.413V81.8359Z" fill="white"/>
<path d="M58.8263 81.8359H62.3357V85.3515H58.8263V81.8359Z" fill="white"/>
<path d="M69.0476 81.8359H72.5632V85.3515H69.0476V81.8359Z" fill="white"/>
<path d="M72.4609 81.8359H75.9703V85.3515H72.4609V81.8359Z" fill="white"/>
<path d="M75.865 81.8359H79.3744V85.3515H75.865V81.8359Z" fill="white"/>
<path d="M79.2783 81.8359H82.7877V85.3515H79.2783V81.8359Z" fill="white"/>
<path d="M82.6915 81.8359H86.201V85.3515H82.6915V81.8359Z" fill="white"/>
<path d="M86.0956 81.8359H89.605V85.3515H86.0956V81.8359Z" fill="white"/>
<path d="M89.4996 81.8359H93.0152V85.3515H89.4996V81.8359Z" fill="white"/>
<path d="M28.1343 85.24H31.6437V88.7556H28.1343V85.24Z" fill="white"/>
<path d="M31.5476 85.24H35.057V88.7556H31.5476V85.24Z" fill="white"/>
<path d="M38.365 85.24H41.8744V88.7556H38.365V85.24Z" fill="white"/>
<path d="M41.7783 85.24H45.2877V88.7556H41.7783V85.24Z" fill="white"/>
<path d="M45.1823 85.24H48.6978V88.7556H45.1823V85.24Z" fill="white"/>
<path d="M55.413 85.24H58.9224V88.7556H55.413V85.24Z" fill="white"/>
<path d="M62.2302 85.24H65.7398V88.7556H62.2302V85.24Z" fill="white"/>
<path d="M65.6343 85.24H69.1499V88.7556H65.6343V85.24Z" fill="white"/>
<path d="M69.0476 85.24H72.5632V88.7556H69.0476V85.24Z" fill="white"/>
<path d="M72.4609 85.24H75.9703V88.7556H72.4609V85.24Z" fill="white"/>
<path d="M79.2783 85.24H82.7877V88.7556H79.2783V85.24Z" fill="white"/>
<path d="M86.0956 85.24H89.605V88.7556H86.0956V85.24Z" fill="white"/>
<path d="M28.1343 88.6533H31.6437V92.1627H28.1343V88.6533Z" fill="white"/>
<path d="M41.7783 88.6533H45.2877V92.1627H41.7783V88.6533Z" fill="white"/>
<path d="M45.1823 88.6533H48.6978V92.1627H45.1823V88.6533Z" fill="white"/>
<path d="M48.5956 88.6533H52.1112V92.1627H48.5956V88.6533Z" fill="white"/>
<path d="M58.8263 88.6533H62.3357V92.1627H58.8263V88.6533Z" fill="white"/>
<path d="M65.6343 88.6533H69.1499V92.1627H65.6343V88.6533Z" fill="white"/>
<path d="M69.0476 88.6533H72.5632V92.1627H69.0476V88.6533Z" fill="white"/>
<path d="M72.4609 88.6533H75.9703V92.1627H72.4609V88.6533Z" fill="white"/>
<path d="M75.865 88.6533H79.3744V92.1627H75.865V88.6533Z" fill="white"/>
<path d="M79.2783 88.6533H82.7877V92.1627H79.2783V88.6533Z" fill="white"/>
<path d="M82.6915 88.6533H86.201V92.1627H82.6915V88.6533Z" fill="white"/>
<path d="M86.0956 88.6533H89.605V92.1627H86.0956V88.6533Z" fill="white"/>
<path d="M92.913 88.6533H96.4286V92.1627H92.913V88.6533Z" fill="white"/>
<path d="M31.5476 92.0665H35.057V95.576H31.5476V92.0665Z" fill="white"/>
<path d="M38.365 92.0665H41.8744V95.576H38.365V92.0665Z" fill="white"/>
<path d="M45.1823 92.0665H48.6978V95.576H45.1823V92.0665Z" fill="white"/>
<path d="M48.5956 92.0665H52.1112V95.576H48.5956V92.0665Z" fill="white"/>
<path d="M51.9996 92.0665H55.509V95.576H51.9996V92.0665Z" fill="white"/>
<path d="M58.8263 92.0665H62.3357V95.576H58.8263V92.0665Z" fill="white"/>
<path d="M65.6343 92.0665H69.1499V95.576H65.6343V92.0665Z" fill="white"/>
<path d="M75.865 92.0665H79.3744V95.576H75.865V92.0665Z" fill="white"/>
<path d="M82.6915 92.0665H86.201V95.576H82.6915V92.0665Z" fill="white"/>
<path d="M86.0956 92.0665H89.605V95.576H86.0956V92.0665Z" fill="white"/>
<path d="M92.913 92.0665H96.4286V95.576H92.913V92.0665Z" fill="white"/>
<path d="M31.5476 95.4706H35.057V98.98H31.5476V95.4706Z" fill="white"/>
<path d="M45.1823 95.4706H48.6978V98.98H45.1823V95.4706Z" fill="white"/>
<path d="M58.8263 95.4706H62.3357V98.98H58.8263V95.4706Z" fill="white"/>
<path d="M62.2302 95.4706H65.7398V98.98H62.2302V95.4706Z" fill="white"/>
<path d="M65.6343 95.4706H69.1499V98.98H65.6343V95.4706Z" fill="white"/>
<path d="M72.4609 95.4706H75.9703V98.98H72.4609V95.4706Z" fill="white"/>
<path d="M75.865 95.4706H79.3744V98.98H75.865V95.4706Z" fill="white"/>
<path d="M82.6915 95.4706H86.201V98.98H82.6915V95.4706Z" fill="white"/>
<path d="M86.0956 95.4706H89.605V98.98H86.0956V95.4706Z" fill="white"/>
<path d="M89.4996 95.4706H93.0152V98.98H89.4996V95.4706Z" fill="white"/>
<path d="M24.7302 0.00927734H8.36745C4.27518 0.00927734 0.86496 3.4195 0.86496 7.51176V23.8746H24.7302V0.00927734ZM4.27518 20.4644V8.1938C4.27518 5.63304 6.49492 3.4195 9.04948 3.4195H21.3201V20.4644H4.27518Z" fill="white"/>
<path d="M99.7302 23.8746V7.51176C99.7302 3.4195 96.3201 0.00927734 92.2278 0.00927734H75.865V23.8746H99.7302ZM79.2751 3.4195H91.5457C94.1065 3.4195 96.3201 5.63304 96.3201 8.1938V20.4644H79.2751V3.4195Z" fill="white"/>
<path d="M0.86496 75.0186V91.3814C0.86496 95.4737 4.27518 98.8839 8.36745 98.8839H24.7302V75.0186H0.86496ZM21.3201 95.4737H9.04948C6.49492 95.4737 4.27518 93.2539 4.27518 90.6994V78.4288H21.3201V95.4737Z" fill="white"/>
<path d="M17.913 9.73152V14.3323C17.913 15.6963 16.5488 17.0604 15.0112 17.0604H10.5779C8.87277 17.0604 7.68228 15.8699 7.68228 14.1648V9.73152C7.68228 8.20002 9.04638 6.83594 10.5779 6.83594H15.1848C16.7163 6.83594 17.913 8.02641 17.913 9.73152Z" fill="white"/>
<path d="M92.9161 9.73152V14.3323C92.9161 15.6963 91.5519 17.0604 90.0205 17.0604H85.5871C83.882 17.0604 82.6915 15.8699 82.6915 14.1648V9.73152C82.6915 8.20002 84.0557 6.83594 85.5871 6.83594H90.1878C91.7256 6.83594 92.9161 8.02641 92.9161 9.73152Z" fill="white"/>
<path d="M17.913 84.7377V89.3384C17.913 90.7025 16.5488 92.0665 15.0112 92.0665H10.5779C8.87277 92.0665 7.68228 90.8761 7.68228 89.1709V84.7377C7.68228 83.2 9.04638 81.8359 10.5779 81.8359H15.1848C16.7163 81.8359 17.913 83.0326 17.913 84.7377Z" fill="white"/>
<path d="M61.0438 38.1971C57.5345 39.6503 42.4882 45.8828 38.3307 47.5816C35.5425 48.6697 37.1746 49.6897 37.1746 49.6897C37.1746 49.6897 39.5546 50.5056 41.5947 51.1177C43.6348 51.7298 44.7228 51.0497 44.7228 51.0497L54.3112 44.5892C57.7112 42.2773 56.8953 44.1813 56.0794 44.9972C54.3112 46.7654 51.3871 49.5533 48.9391 51.7975C47.851 52.7495 48.395 53.5657 48.871 53.9737C50.6392 55.4697 55.4673 58.5299 55.7394 58.734C57.1761 59.7509 60.0019 61.2151 60.4317 58.1219L62.1318 47.4455C62.6759 43.8413 63.2199 40.5091 63.288 39.5571C63.4918 37.2451 61.0438 38.1971 61.0438 38.1971Z" fill="white"/>
</svg>
