<svg width="50" height="50" viewBox="0 0 50 50" fill="none" xmlns="http://www.w3.org/2000/svg">
<g clip-path="url(#clip0_221_2)">
<path d="M48.4466 18.5169C46.626 16.9862 43.8403 17.1685 42.2597 19.0533L41.3098 20.1771L48.0427 25.8264L48.9497 24.7067C50.5098 22.8512 50.3124 20.0802 48.4466 18.5169ZM29.4312 34.2318L28.9301 34.8248C28.4936 35.3479 28.1838 35.9648 28.0246 36.6272L26.6628 42.3263C26.5998 42.5909 26.6116 42.8678 26.697 43.126C26.7824 43.3842 26.938 43.6135 27.1463 43.7884C27.5598 44.1358 28.143 44.2367 28.6698 44.0115L34.0471 41.6798C34.6706 41.4081 35.2233 40.9964 35.6621 40.4767L36.1649 39.8818L29.4312 34.2318ZM39.4195 22.4137L31.3216 31.9952L38.055 37.6452L46.1525 28.0631L39.4195 22.4137ZM36.7207 6.49451L31.1561 1.2073C30.63 0.708569 29.9828 0.414819 29.3007 0.223999V8.78904H37.9972C37.8154 7.91892 37.3721 7.11287 36.7207 6.49451Z" fill="white"/>
<path d="M25.175 35.9464C25.4368 34.8506 25.9589 33.8135 26.6827 32.9466L38.0897 19.4491V11.7188H27.8358C27.0261 11.7188 26.3709 11.0636 26.3709 10.2539V0H4.39825C1.97501 0 0.00372314 1.97129 0.00372314 4.39453V45.6055C0.00372314 48.0287 1.97501 50 4.39825 50H33.6951C36.1184 50 38.0897 48.0287 38.0897 45.6055V42.1427L37.8994 42.3678C37.1799 43.2247 36.2515 43.9156 35.2172 44.3663L29.8357 46.6995C28.3189 47.3545 26.5631 47.1225 25.2638 46.0343C23.9806 44.9571 23.4241 43.2763 23.8132 41.6455L25.175 35.9464ZM7.32794 8.78906H21.9764C22.786 8.78906 23.4412 9.44424 23.4412 10.2539C23.4412 11.0636 22.786 11.7188 21.9764 11.7188H7.32794C6.51827 11.7188 5.8631 11.0636 5.8631 10.2539C5.8631 9.44424 6.51827 8.78906 7.32794 8.78906ZM7.32794 17.6758H30.7654C31.5751 17.6758 32.2303 18.331 32.2303 19.1406C32.2303 19.9503 31.5751 20.6055 30.7654 20.6055H7.32794C6.51827 20.6055 5.8631 19.9503 5.8631 19.1406C5.8631 18.331 6.51827 17.6758 7.32794 17.6758ZM19.0467 38.1836H7.32794C6.51827 38.1836 5.8631 37.5284 5.8631 36.7188C5.8631 35.9091 6.51827 35.2539 7.32794 35.2539H19.0467C19.8564 35.2539 20.5115 35.9091 20.5115 36.7188C20.5115 37.5284 19.8564 38.1836 19.0467 38.1836ZM7.32794 29.3945C6.51827 29.3945 5.8631 28.7394 5.8631 27.9297C5.8631 27.12 6.51827 26.4648 7.32794 26.4648H24.9061C25.7157 26.4648 26.3709 27.12 26.3709 27.9297C26.3709 28.7394 25.7157 29.3945 24.9061 29.3945H7.32794Z" fill="white"/>
</g>
<defs>
<clipPath id="clip0_221_2">
<rect width="50" height="50" fill="white"/>
</clipPath>
</defs>
</svg>
