<svg width="41" height="50" viewBox="0 0 41 50" fill="none" xmlns="http://www.w3.org/2000/svg">
<path d="M29.6512 17.4419C28.5737 17.4358 27.5421 17.005 26.7801 16.2431C26.0182 15.4812 25.5875 14.4496 25.5814 13.3721V0H4.06977C2.99228 0.00610488 1.96066 0.436843 1.19875 1.19875C0.436843 1.96066 0.00610488 2.99228 0 4.06977V45.9302C0.00610488 47.0077 0.436843 48.0393 1.19875 48.8012C1.96066 49.5632 2.99228 49.9939 4.06977 50H36.6279C37.7054 49.9939 38.737 49.5632 39.4989 48.8012C40.2608 48.0393 40.6916 47.0077 40.6977 45.9302V17.4419H29.6512ZM11.0465 18.6047H20.3488C20.8114 18.6047 21.2551 18.7884 21.5822 19.1155C21.9093 19.4426 22.093 19.8862 22.093 20.3488C22.093 20.8114 21.9093 21.2551 21.5822 21.5822C21.2551 21.9093 20.8114 22.093 20.3488 22.093H11.0465C10.5839 22.093 10.1403 21.9093 9.81319 21.5822C9.48609 21.2551 9.30233 20.8114 9.30233 20.3488C9.30233 19.8862 9.48609 19.4426 9.81319 19.1155C10.1403 18.7884 10.5839 18.6047 11.0465 18.6047ZM29.6512 40.6977H11.0465C10.5839 40.6977 10.1403 40.5139 9.81319 40.1868C9.48609 39.8597 9.30233 39.4161 9.30233 38.9535C9.30233 38.4909 9.48609 38.0473 9.81319 37.7202C10.1403 37.3931 10.5839 37.2093 11.0465 37.2093H29.6512C30.1137 37.2093 30.5574 37.3931 30.8845 37.7202C31.2116 38.0473 31.3953 38.4909 31.3953 38.9535C31.3953 39.4161 31.2116 39.8597 30.8845 40.1868C30.5574 40.5139 30.1137 40.6977 29.6512 40.6977ZM29.6512 31.3953H11.0465C10.5839 31.3953 10.1403 31.2116 9.81319 30.8845C9.48609 30.5574 9.30233 30.1137 9.30233 29.6512C9.30233 29.1886 9.48609 28.7449 9.81319 28.4178C10.1403 28.0907 10.5839 27.907 11.0465 27.907H29.6512C30.1137 27.907 30.5574 28.0907 30.8845 28.4178C31.2116 28.7449 31.3953 29.1886 31.3953 29.6512C31.3953 30.1137 31.2116 30.5574 30.8845 30.8845C30.5574 31.2116 30.1137 31.3953 29.6512 31.3953Z" fill="black"/>
<path d="M29.6512 13.9535H39.7442L29.3721 1.4651C29.2772 1.36589 29.1762 1.27268 29.0698 1.18604V13.3721C29.0698 13.5263 29.131 13.6742 29.24 13.7832C29.3491 13.8922 29.497 13.9535 29.6512 13.9535Z" fill="black"/>
</svg>
