<svg width="50" height="50" viewBox="0 0 50 50" fill="none" xmlns="http://www.w3.org/2000/svg">
<path d="M45.6406 18.5C44.7289 18.3676 43.8588 18.0312 43.0951 17.5158C42.3314 17.0005 41.6937 16.3195 41.2297 15.5236C40.7657 14.7277 40.4872 13.8373 40.4149 12.9188C40.3427 12.0004 40.4786 11.0774 40.8125 10.2187C41.0248 9.65738 41.056 9.04366 40.9019 8.46363C40.7478 7.8836 40.416 7.36634 39.9531 6.98437C37.9094 5.26822 35.5832 3.92006 33.0781 3C32.5077 2.7881 31.8849 2.76162 31.2986 2.92434C30.7122 3.08706 30.1922 3.43068 29.8125 3.90625C29.2411 4.63696 28.5107 5.22794 27.6769 5.63439C26.8431 6.04084 25.9276 6.25207 25 6.25207C24.0724 6.25207 23.1569 6.04084 22.3231 5.63439C21.4893 5.22794 20.7589 4.63696 20.1875 3.90625C19.8078 3.43068 19.2878 3.08706 18.7014 2.92434C18.1151 2.76162 17.4923 2.7881 16.9219 3C14.6089 3.84944 12.4462 5.06261 10.5156 6.59375C10.029 6.979 9.67845 7.50995 9.51538 8.10883C9.3523 8.70771 9.38524 9.34307 9.60938 9.92187C9.96993 10.8033 10.1189 11.7569 10.0443 12.7062C9.96977 13.6556 9.67374 14.5743 9.18 15.3886C8.68626 16.2029 8.00856 16.8901 7.20124 17.3952C6.39393 17.9002 5.47948 18.2091 4.53125 18.2969C3.91564 18.3627 3.33743 18.6244 2.88174 19.0436C2.42605 19.4627 2.11697 20.017 2 20.625C1.70906 22.0652 1.5625 23.5307 1.5625 25C1.56036 26.23 1.65966 27.4582 1.85938 28.6719C1.95878 29.2993 2.26211 29.8766 2.72247 30.3143C3.18284 30.7521 3.77459 31.026 4.40625 31.0937C5.37531 31.1847 6.30848 31.5064 7.12767 32.032C7.94685 32.5576 8.62822 33.2718 9.11474 34.1148C9.60126 34.9578 9.87877 35.9051 9.92405 36.8773C9.96933 37.8496 9.78106 38.8186 9.375 39.7031C9.10926 40.2785 9.04335 40.9262 9.18772 41.5433C9.33209 42.1604 9.67848 42.7116 10.1719 43.1094C12.2033 44.7944 14.5071 46.1206 16.9844 47.0312C17.3012 47.141 17.6335 47.199 17.9688 47.2031C18.4284 47.2021 18.8811 47.0909 19.2889 46.8789C19.6967 46.6668 20.0477 46.3601 20.3125 45.9844C20.8694 45.173 21.6159 44.5098 22.4872 44.0523C23.3586 43.5949 24.3284 43.357 25.3125 43.3594C26.266 43.3606 27.2061 43.5844 28.0579 44.013C28.9096 44.4416 29.6496 45.0631 30.2188 45.8281C30.5974 46.3371 31.1337 46.7065 31.7441 46.8789C32.3545 47.0513 33.0049 47.0169 33.5938 46.7812C35.8589 45.8696 37.9677 44.6096 39.8438 43.0469C40.315 42.6572 40.6506 42.1282 40.8022 41.5358C40.9538 40.9434 40.9137 40.3181 40.6875 39.75C40.32 38.88 40.1598 37.9364 40.2194 36.9938C40.2791 36.0513 40.5571 35.1355 41.0313 34.3187C41.5056 33.502 42.1633 32.8067 42.9523 32.2877C43.7414 31.7686 44.6403 31.4402 45.5781 31.3281C46.1862 31.244 46.7518 30.9685 47.1928 30.5415C47.6339 30.1145 47.9275 29.5582 48.0313 28.9531C48.2822 27.6499 48.4181 26.3271 48.4375 25C48.4378 23.6002 48.307 22.2035 48.0469 20.8281C47.9414 20.2364 47.6521 19.693 47.2201 19.275C46.7882 18.8571 46.2355 18.5859 45.6406 18.5ZM32.8125 25C32.8125 26.5452 32.3543 28.0556 31.4959 29.3404C30.6374 30.6251 29.4173 31.6265 27.9897 32.2178C26.5622 32.8091 24.9913 32.9638 23.4759 32.6624C21.9604 32.3609 20.5683 31.6169 19.4757 30.5243C18.3831 29.4317 17.6391 28.0396 17.3376 26.5241C17.0362 25.0087 17.1909 23.4378 17.7822 22.0103C18.3735 20.5827 19.3749 19.3626 20.6596 18.5041C21.9444 17.6457 23.4548 17.1875 25 17.1875C27.072 17.1875 29.0591 18.0106 30.5243 19.4757C31.9894 20.9409 32.8125 22.928 32.8125 25Z" fill="white"/>
</svg>
