<svg width="100" height="100" viewBox="0 0 100 100" fill="none" xmlns="http://www.w3.org/2000/svg">
<g clip-path="url(#clip0_38_36)">
<path d="M67.44 3.2029C31.0679 -10.3577 -6.48545 21.1711 0.949382 59.5941C8.19928 97.0012 53.3011 112.773 82.3216 88.136C111.477 63.3782 103.067 16.4743 67.44 3.2029ZM49.9995 44.3949C53.1099 44.3949 55.6405 46.9255 55.6405 50.0359C55.6405 53.1463 53.1099 55.6769 49.9995 55.6769C46.8891 55.6769 44.3585 53.1463 44.3585 50.0359C44.3585 46.9255 46.8889 44.3949 49.9995 44.3949ZM14.5831 49.1093C13.9444 36.3556 20.7324 24.7183 31.5663 18.821C35.9826 16.4169 41.8033 18.8508 42.7425 24.3818C43.3862 28.2131 43.5196 32.1295 43.1392 36.024C42.5985 41.5651 39.7387 46.6678 35.2928 50.0232C32.1679 52.3801 28.7575 54.3095 25.1555 55.7587C19.9658 57.8386 14.8361 54.155 14.5831 49.1093ZM66.6638 81.3754C56.5052 87.7778 43.4988 87.7812 33.3348 81.3754C29.1612 78.7449 28.4817 72.6442 32.7159 69.2163C35.6318 66.8723 38.845 64.9243 42.2717 63.423C47.1824 61.2681 52.8159 61.2681 57.7272 63.4232C61.2321 64.9603 64.4416 66.9214 67.4066 69.3166C71.3521 72.5148 70.9645 78.6647 66.6638 81.3754ZM85.4177 47.6048C85.2984 49.9823 84.0304 52.1698 82.0258 53.4569C79.7636 54.9089 76.8786 54.8984 75.1779 54.048C71.7562 52.6716 68.5167 50.8389 65.5493 48.6006C61.3042 45.3965 58.574 40.5251 58.0578 35.2351C57.6966 31.5356 57.8231 27.8154 58.4344 24.1781C59.3452 18.8371 64.9677 16.4544 69.2619 18.7924C79.571 24.4036 86.0245 35.4748 85.4177 47.6048Z" fill="black"/>
</g>
<defs>
<clipPath id="clip0_38_36">
<rect width="100" height="100" fill="white"/>
</clipPath>
</defs>
</svg>
