<svg width="50" height="50" viewBox="0 0 50 50" fill="none" xmlns="http://www.w3.org/2000/svg">
<path d="M25.0012 12.4767C18.0958 12.4767 12.478 18.0957 12.478 25.0011C12.478 31.9066 18.0958 37.5255 25.0012 37.5255C31.9056 37.5255 37.5245 31.9077 37.5245 25.0011C37.5245 18.0946 31.9056 12.4767 25.0012 12.4767ZM25.0012 8.79539C24.3534 8.79539 23.732 8.5381 23.2738 8.08009C22.8156 7.62208 22.558 7.00084 22.5577 6.35297V2.44353C22.5577 1.79547 22.8151 1.17395 23.2734 0.715695C23.7316 0.257443 24.3532 0 25.0012 0C25.6493 0 26.2708 0.257443 26.7291 0.715695C27.1873 1.17395 27.4448 1.79547 27.4448 2.44353V6.35297C27.4445 7.00084 27.1869 7.62208 26.7287 8.08009C26.2705 8.5381 25.6491 8.79539 25.0012 8.79539ZM25.0012 41.2035C24.6803 41.2035 24.3626 41.2667 24.0661 41.3895C23.7697 41.5123 23.5003 41.6923 23.2734 41.9192C23.0465 42.1461 22.8665 42.4155 22.7437 42.7119C22.6209 43.0084 22.5577 43.3261 22.5577 43.647V47.5554C22.5577 48.2034 22.8151 48.8249 23.2734 49.2832C23.7316 49.7415 24.3532 49.9989 25.0012 49.9989C25.6493 49.9989 26.2708 49.7415 26.7291 49.2832C27.1873 48.8249 27.4448 48.2034 27.4448 47.5554V43.647C27.4445 42.9991 27.1869 42.3777 26.7287 41.9195C26.2706 41.4613 25.6492 41.2038 25.0012 41.2035ZM36.4583 13.5419C36.0003 13.0835 35.7431 12.462 35.7431 11.8141C35.7431 11.1662 36.0003 10.5447 36.4583 10.0864L39.2229 7.32174C39.4489 7.09096 39.7185 6.90728 40.0159 6.78134C40.3134 6.65539 40.6329 6.58967 40.9559 6.58799C41.2789 6.58631 41.5991 6.64869 41.8978 6.77153C42.1966 6.89438 42.468 7.07524 42.6965 7.30365C42.9249 7.53207 43.1057 7.80351 43.2286 8.10227C43.3514 8.40104 43.4138 8.72119 43.4121 9.04422C43.4104 9.36725 43.3447 9.68673 43.2188 9.9842C43.0928 10.2817 42.9092 10.5512 42.6784 10.7772L39.9138 13.5419C39.4555 14 38.834 14.2575 38.186 14.2575C37.538 14.2575 36.9165 14 36.4583 13.5419ZM13.5431 36.4593C13.3163 36.2321 13.047 36.0519 12.7505 35.929C12.4541 35.806 12.1363 35.7427 11.8153 35.7427C11.4944 35.7427 11.1766 35.806 10.8801 35.929C10.5837 36.0519 10.3143 36.2321 10.0876 36.4593L7.32297 39.2228C6.87261 39.6826 6.62186 40.3016 6.62522 40.9452C6.62857 41.5889 6.88574 42.2052 7.34088 42.6604C7.79601 43.1155 8.41234 43.3727 9.05599 43.376C9.69964 43.3794 10.3186 43.1286 10.7785 42.6783L13.5431 39.9125C13.77 39.6859 13.9501 39.4167 14.0729 39.1205C14.1957 38.8242 14.259 38.5066 14.259 38.1859C14.259 37.8652 14.1957 37.5476 14.0729 37.2513C13.9501 36.955 13.77 36.6859 13.5431 36.4593ZM41.2047 25C41.2047 23.6504 42.2986 22.5565 43.6483 22.5565H47.5577C47.8829 22.5495 48.2062 22.6076 48.5086 22.7273C48.8111 22.8469 49.0866 23.0258 49.3191 23.2533C49.5515 23.4809 49.7362 23.7525 49.8622 24.0523C49.9883 24.3522 50.0532 24.6742 50.0532 24.9994C50.0532 25.3247 49.9883 25.6467 49.8622 25.9465C49.7362 26.2464 49.5515 26.518 49.3191 26.7456C49.0866 26.9731 48.8111 27.152 48.5086 27.2716C48.2062 27.3913 47.8829 27.4494 47.5577 27.4424H43.6483C43.3274 27.4426 43.0097 27.3795 42.7132 27.2568C42.4168 27.1341 42.1474 26.9543 41.9205 26.7274C41.6936 26.5006 41.5136 26.2313 41.3908 25.9349C41.2679 25.6385 41.2047 25.3208 41.2047 25ZM8.79662 25C8.79662 24.6791 8.73342 24.3614 8.61062 24.0649C8.48782 23.7684 8.30783 23.4991 8.08093 23.2722C7.85403 23.0453 7.58465 22.8653 7.28819 22.7425C6.99173 22.6197 6.67398 22.5565 6.35309 22.5565H2.44476C2.11957 22.5495 1.79627 22.6076 1.49381 22.7273C1.19136 22.8469 0.915834 23.0258 0.683401 23.2533C0.450968 23.4809 0.266302 23.7525 0.14023 24.0523C0.0141584 24.3522 -0.0507812 24.6742 -0.0507812 24.9994C-0.0507812 25.3247 0.0141584 25.6467 0.14023 25.9465C0.266302 26.2464 0.450968 26.518 0.683401 26.7456C0.915834 26.9731 1.19136 27.152 1.49381 27.2716C1.79627 27.3913 2.11957 27.4494 2.44476 27.4424H6.3542C7.00197 27.4424 7.62321 27.1851 8.08125 26.7271C8.5393 26.269 8.79662 25.6478 8.79662 25ZM36.4583 36.4593C36.9167 36.0013 37.5381 35.7441 38.186 35.7441C38.8339 35.7441 39.4554 36.0013 39.9138 36.4593L42.6784 39.2239C43.1365 39.6821 43.3937 40.3035 43.3936 40.9515C43.3935 41.5994 43.1361 42.2207 42.6778 42.6788C42.4509 42.9056 42.1816 43.0855 41.8852 43.2083C41.5887 43.331 41.2711 43.3941 40.9502 43.3941C40.3023 43.394 39.681 43.1365 39.2229 42.6783L36.4583 39.9136C36.2313 39.6869 36.0512 39.4177 35.9284 39.1213C35.8055 38.8249 35.7423 38.5073 35.7423 38.1865C35.7423 37.8656 35.8055 37.548 35.9284 37.2516C36.0512 36.9552 36.2313 36.686 36.4583 36.4593ZM13.5431 13.5419C14.0013 13.0836 14.2587 12.4621 14.2587 11.8141C14.2587 11.1661 14.0013 10.5446 13.5431 10.0864L10.7785 7.32285C10.3172 6.88018 9.70085 6.63591 9.06158 6.64242C8.42232 6.64894 7.81106 6.90573 7.35893 7.35771C6.9068 7.8097 6.64982 8.42087 6.6431 9.06014C6.63637 9.6994 6.88045 10.3158 7.32297 10.7772L10.0876 13.5419C10.3143 13.769 10.5837 13.9492 10.8801 14.0721C11.1766 14.1951 11.4944 14.2584 11.8153 14.2584C12.1363 14.2584 12.4541 14.1951 12.7505 14.0721C13.047 13.9492 13.3163 13.769 13.5431 13.5419Z" fill="white"/>
</svg>
