<svg width="50" height="50" viewBox="0 0 50 50" fill="none" xmlns="http://www.w3.org/2000/svg">
<g clip-path="url(#clip0_111_20)">
<path d="M25 18.75H10.4167C9.86414 18.75 9.33424 18.9695 8.94354 19.3602C8.55284 19.7509 8.33334 20.2808 8.33334 20.8333V23.9583C8.33334 24.5109 8.55284 25.0408 8.94354 25.4315C9.33424 25.8222 9.86414 26.0417 10.4167 26.0417C10.9692 26.0417 11.4991 25.8222 11.8898 25.4315C12.2805 25.0408 12.5 24.5109 12.5 23.9583V22.9167H15.625V35.4167H14.5833C14.0308 35.4167 13.5009 35.6362 13.1102 36.0269C12.7195 36.4176 12.5 36.9475 12.5 37.5C12.5 38.0525 12.7195 38.5824 13.1102 38.9731C13.5009 39.3638 14.0308 39.5833 14.5833 39.5833H20.8333C21.3859 39.5833 21.9158 39.3638 22.3065 38.9731C22.6972 38.5824 22.9167 38.0525 22.9167 37.5C22.9167 36.9475 22.6972 36.4176 22.3065 36.0269C21.9158 35.6362 21.3859 35.4167 20.8333 35.4167H19.7917V22.9167H22.9167V23.9583C22.9167 24.5109 23.1362 25.0408 23.5269 25.4315C23.9176 25.8222 24.4475 26.0417 25 26.0417C25.5525 26.0417 26.0824 25.8222 26.4732 25.4315C26.8639 25.0408 27.0833 24.5109 27.0833 23.9583V20.8333C27.0833 20.2808 26.8639 19.7509 26.4732 19.3602C26.0824 18.9695 25.5525 18.75 25 18.75ZM39.5833 22.9167H33.3333C32.7808 22.9167 32.2509 22.6972 31.8602 22.3065C31.4695 21.9158 31.25 21.3859 31.25 20.8333C31.25 20.2808 31.4695 19.7509 31.8602 19.3602C32.2509 18.9695 32.7808 18.75 33.3333 18.75H39.5833C40.1359 18.75 40.6658 18.9695 41.0565 19.3602C41.4472 19.7509 41.6667 20.2808 41.6667 20.8333C41.6667 21.3859 41.4472 21.9158 41.0565 22.3065C40.6658 22.6972 40.1359 22.9167 39.5833 22.9167ZM39.5833 31.25H33.3333C32.7808 31.25 32.2509 31.0305 31.8602 30.6398C31.4695 30.2491 31.25 29.7192 31.25 29.1667C31.25 28.6141 31.4695 28.0842 31.8602 27.6935C32.2509 27.3028 32.7808 27.0833 33.3333 27.0833H39.5833C40.1359 27.0833 40.6658 27.3028 41.0565 27.6935C41.4472 28.0842 41.6667 28.6141 41.6667 29.1667C41.6667 29.7192 41.4472 30.2491 41.0565 30.6398C40.6658 31.0305 40.1359 31.25 39.5833 31.25ZM39.5833 39.5833H33.3333C32.7808 39.5833 32.2509 39.3638 31.8602 38.9731C31.4695 38.5824 31.25 38.0525 31.25 37.5C31.25 36.9475 31.4695 36.4176 31.8602 36.0269C32.2509 35.6362 32.7808 35.4167 33.3333 35.4167H39.5833C40.1359 35.4167 40.6658 35.6362 41.0565 36.0269C41.4472 36.4176 41.6667 36.9475 41.6667 37.5C41.6667 38.0525 41.4472 38.5824 41.0565 38.9731C40.6658 39.3638 40.1359 39.5833 39.5833 39.5833Z" fill="white"/>
<path d="M43.75 2.08334H6.25C2.80417 2.08334 0 4.88751 0 8.33334V41.6667C0 45.1125 2.80417 47.9167 6.25 47.9167H43.75C47.1958 47.9167 50 45.1125 50 41.6667V8.33334C50 4.88751 47.1958 2.08334 43.75 2.08334ZM43.75 43.75H6.25C5.10208 43.75 4.16667 42.8167 4.16667 41.6667V12.5H45.8333V41.6667C45.8333 42.8167 44.8979 43.75 43.75 43.75Z" fill="white"/>
</g>
<defs>
<clipPath id="clip0_111_20">
<rect width="50" height="50" fill="white"/>
</clipPath>
</defs>
</svg>
