<svg width="50" height="50" viewBox="0 0 50 50" fill="none" xmlns="http://www.w3.org/2000/svg">
<path d="M41.0714 0H8.92857C6.56057 0 4.28955 0.940686 2.61512 2.61512C0.940686 4.28955 0 6.56057 0 8.92857V41.0714C0 43.4394 0.940686 45.7104 2.61512 47.3849C4.28955 49.0593 6.56057 50 8.92857 50H41.0714C43.4394 50 45.7104 49.0593 47.3849 47.3849C49.0593 45.7104 50 43.4394 50 41.0714V8.92857C50 6.56057 49.0593 4.28955 47.3849 2.61512C45.7104 0.940686 43.4394 0 41.0714 0ZM42.1786 18.2679L34.1429 24.6071C33.8287 24.8592 33.4385 24.9977 33.0357 25C32.9354 25.0185 32.8325 25.0185 32.7321 25C32.4831 24.9568 32.2461 24.8612 32.0368 24.7196C31.8275 24.578 31.6506 24.3936 31.5179 24.1786C30.8688 23.0105 29.9261 22.032 28.783 21.3399C27.6398 20.6477 26.3359 20.2659 25 20.2321C23.6676 20.2623 22.366 20.6387 21.2232 21.3244C20.0804 22.0101 19.1358 22.9814 18.4821 24.1429C18.3494 24.3579 18.1725 24.5423 17.9632 24.6839C17.7539 24.8255 17.5169 24.9211 17.2679 24.9643C17.021 25.0144 16.766 25.0084 16.5218 24.9465C16.2776 24.8847 16.0504 24.7687 15.8571 24.6071L7.82143 18.2679C7.63485 18.1232 7.4788 17.943 7.36233 17.7376C7.24585 17.5322 7.17126 17.3058 7.14286 17.0714C7.11504 16.8373 7.13385 16.6 7.19822 16.3732C7.26258 16.1464 7.37122 15.9346 7.51786 15.75C10.002 12.8506 13.0846 10.5235 16.5536 8.92857C19.2199 7.78643 22.0904 7.19752 24.9911 7.19752C27.8917 7.19752 30.7622 7.78643 33.4286 8.92857C36.9045 10.5361 39.988 12.8823 42.4643 15.8036C42.6109 15.9882 42.7196 16.2 42.7839 16.4268C42.8483 16.6536 42.8671 16.8909 42.8393 17.125C42.7731 17.5764 42.5367 17.9853 42.1786 18.2679ZM17.9821 12.1607C15.5905 13.2711 13.4095 14.7876 11.5357 16.6429L16.625 20.6607C18.2983 18.6452 20.6339 17.2907 23.2143 16.8393V14.2857C23.2143 13.8121 23.4024 13.3579 23.7373 13.023C24.0722 12.6881 24.5264 12.5 25 12.5C25.4736 12.5 25.9278 12.6881 26.2627 13.023C26.5976 13.3579 26.7857 13.8121 26.7857 14.2857V16.8393C29.3661 17.2907 31.7017 18.6452 33.375 20.6607L38.4643 16.6429C36.5906 14.7876 34.4095 13.2711 32.0179 12.1607C29.7996 11.2127 27.4123 10.7239 25 10.7239C22.5877 10.7239 20.2004 11.2127 17.9821 12.1607Z" fill="white"/>
</svg>
